<svg width="32" height="32" viewBox="0 0 32 32" fill="none" xmlns="http://www.w3.org/2000/svg">
<circle cx="16" cy="16" r="15.5" fill="#0E0E0E" stroke="#DE9E48"/>
<path d="M8.731 22.173C12.4737 20.5016 16.5716 16.8912 20.9208 11.6607C20.2408 11.8128 19.7182 11.936 19.4805 12.043C18.6537 12.4122 16.3993 13.0431 16.3993 13.0431C16.3993 13.0431 16.6702 13.6817 16.4754 13.7199C16.2804 13.7566 8.11596 15.3349 8.11596 15.3349C8.11596 15.3349 6.76888 13.5006 8.09661 13.2243C8.97333 13.0425 16.7963 11.4156 22.0022 10.3327C22.2883 9.97315 22.5771 9.60896 22.8659 9.23612C23.1683 8.81291 23.6287 9.16105 23.7987 9.95872C25.5168 9.60203 26.6583 9.36462 26.6583 9.36462C26.6583 9.36462 27.1845 9.4603 26.9708 9.80974C26.0735 10.2898 24.9226 10.6696 23.787 10.9776C22.6113 14.8585 11.8736 23.5774 10.9732 23.9503C10.0482 24.3348 7.89996 22.1235 8.731 22.173ZM22.7524 11.3989C22.8941 11.2997 22.9277 11.1039 22.8294 10.9633C22.7302 10.8216 22.5348 10.7875 22.3931 10.8864C22.2515 10.9856 22.2174 11.1808 22.3167 11.3225C22.4155 11.4632 22.6114 11.498 22.7524 11.3989Z" fill="#DE9E48"/>
</svg>
