<svg width="30" height="30" viewBox="0 0 30 30" fill="none" xmlns="http://www.w3.org/2000/svg">
<path d="M20.7644 15.9375H6.5625C6.29646 15.9375 6.07375 15.8477 5.89437 15.6682C5.71479 15.4888 5.625 15.2661 5.625 15C5.625 14.734 5.71479 14.5113 5.89437 14.3319C6.07375 14.1523 6.29646 14.0625 6.5625 14.0625H20.7644L16.6491 9.94723C16.4632 9.76119 16.3715 9.54358 16.3738 9.29441C16.3763 9.04525 16.468 8.82369 16.6491 8.62973C16.843 8.43598 17.0657 8.33587 17.3172 8.32941C17.5689 8.32296 17.7917 8.41671 17.9856 8.61066L23.5841 14.2091C23.7011 14.3262 23.7836 14.4496 23.8316 14.5794C23.8797 14.7092 23.9037 14.8494 23.9037 15C23.9037 15.1507 23.8797 15.2909 23.8316 15.4207C23.7836 15.5505 23.7011 15.6739 23.5841 15.791L17.9856 21.3894C17.7996 21.5752 17.5789 21.667 17.3234 21.6647C17.0678 21.6622 16.843 21.5641 16.6491 21.3704C16.468 21.1764 16.3743 20.9568 16.3678 20.7116C16.3614 20.4664 16.4551 20.2468 16.6491 20.0529L20.7644 15.9375Z" fill="#0E0E0E"/>
</svg>
