<svg width="42" height="80" viewBox="0 0 42 80" fill="none" xmlns="http://www.w3.org/2000/svg">
<path d="M1.63371 59.3721C1.82658 62.2376 4.389 65.3786 4.389 67.0502C4.389 68.7217 7.7872 73.0567 9.52303 73.7914C11.2589 74.5262 13.8029 76.7304 15.401 77.8693C16.7928 78.7361 18.2738 79.4505 19.8186 80C23.3638 79.2653 26.0364 76.262 29.6367 74.3241C33.2369 72.3862 37.3882 68.5839 37.4525 67.4451C37.5168 66.3062 38.5914 65.847 39.8588 64.2398C41.1262 62.6325 41.2548 57.2964 41.4844 54.4218C41.714 51.5471 40.1251 46.6151 38.7291 44.8425C37.627 43.4557 38.2607 39.1942 38.5822 37.4308C38.4244 38.1776 38.1841 38.9045 37.8658 39.5983C37.3249 41.204 36.9434 42.859 36.7269 44.5394C36.7269 44.5394 36.5892 46.0089 35.5881 46.4773C34.587 46.9457 33.4573 49.0214 33.4573 49.0214L35.2942 52.6216L32.3552 49.5541C31.6099 49.1993 30.8275 48.9282 30.0224 48.7458C28.755 48.4795 24.6128 44.7415 23.1158 43.8782C22.6767 43.6426 22.1714 43.5607 21.6804 43.6456C21.1894 43.7305 20.7409 43.9772 20.4064 44.3466C20.4064 44.3466 20.1401 43.8782 18.7992 43.6118C17.4583 43.3455 15.2632 46.6794 13.9958 47.0835C12.7284 47.4876 9.78937 48.9204 8.58623 50.6194C7.38309 52.3185 4.44411 53.0625 4.44411 53.0625L7.1994 50.9868C7.30481 49.921 7.30481 48.8473 7.1994 47.7815C6.99734 46.9182 4.86659 46.1834 4.26042 44.1813C3.52305 42.1674 2.65481 40.2039 1.66126 38.3033C1.66126 38.3033 2.12048 41.3709 2.4603 42.7761C2.72058 43.844 2.55245 44.9715 1.9919 45.9171C1.58779 46.6518 0.320355 49.5173 1.11939 51.795C1.91842 54.0727 1.45003 56.4974 1.63371 59.3721ZM9.7159 56.4331L12.8386 52.3553L14.9785 51.1521C15.5755 50.8215 17.5777 49.2142 18.1838 49.3153C18.79 49.4163 20.5717 49.8388 20.7462 49.3153C20.9207 48.7918 23.1617 49.8571 23.1617 49.8571L25.7241 50.2521L27.46 51.1705C27.46 51.1705 30.9316 54.7799 31.0051 54.982C31.0786 55.184 31.9235 57.1128 31.9235 57.1128L27.3865 52.64L26.2476 52.2267C26.2476 52.2267 23.4924 53.0257 23.1525 53.0257C22.8127 53.0257 20.7371 52.8237 20.7371 52.8237L19.1757 53.3196L15.8326 52.888L13.8948 52.6859C12.4115 53.8304 11.0147 55.0829 9.7159 56.4331L8.8985 57.4985C9.13723 57.1187 9.41088 56.762 9.7159 56.4331Z" fill="#C47F2B"/>
<path d="M37.1407 15.8752L33.5312 17.9142C33.5312 17.9142 35.1752 19.751 36.6264 21.0644C38.0775 22.3777 37.1407 25.3075 37.0029 27.2454C36.8652 29.1833 39.5102 34.7949 39.5102 35.2725C39.5102 35.7501 39.7123 32.0121 39.7123 32.0121C39.7123 32.0121 40.3368 27.0617 40.4378 26.1341C40.5389 25.2065 40.4378 21.9093 40.4378 21.9093L39.4092 16.8947L37.1407 15.8752Z" fill="#1A1A1A"/>
<path d="M1.26673 35.8235L1.88208 31.2864C1.88208 31.2864 3.53525 28.7148 2.80051 26.3453C2.06576 23.9757 3.94855 20.9174 3.94855 20.9174C3.94855 20.9174 7.24571 17.3814 7.62227 17.4549C7.99883 17.5283 24.4204 17.4549 27.5155 17.6937C29.5073 17.75 31.4944 17.4705 33.3934 16.8671C35.1389 15.9025 36.5053 14.3742 37.2692 12.5321C38.5091 9.77679 35.7262 5.31322 33.4577 3.69678C31.1892 2.08035 26.6521 1.51092 26.6521 1.51092C28.0941 2.15382 29.6646 4.80808 29.9493 5.24893C30.6106 6.2592 25.4123 0.473093 21.2885 0.0597993C17.1648 -0.353494 10.5429 1.51092 10.5429 1.51092C9.44427 1.37358 8.32875 1.50025 7.2889 1.88041C6.24905 2.26056 5.31487 2.88325 4.56389 3.69678C3.44381 4.39554 2.46545 5.29912 1.68002 6.36023C0.761593 7.81135 1.68002 10.3646 1.68002 10.3646L0.531986 11.733C0.421774 15.3425 5.27109 15.9027 5.27109 15.9027H1.99229C1.07386 16.6375 0.651382 18.4284 0.54117 20.9357C0.430959 23.443 0.54117 27.4198 0.54117 27.4198L1.26673 35.8235ZM34.2751 14.8006L34.1465 13.3495C34.9731 10.8789 31.4647 5.24893 31.4647 5.24893C32.8842 6.33836 33.9212 7.85028 34.4262 9.56686C34.9313 11.2834 34.8784 13.116 34.2751 14.8006ZM21.1599 6.85618C23.9152 9.61147 23.2264 13.873 23.2264 13.873C23.1162 9.28084 16.6229 4.51419 16.6229 4.51419C16.6229 4.51419 18.3771 4.11926 21.1599 6.85618Z" fill="#1A1A1A"/>
</svg>
