<svg width="32" height="33" viewBox="0 0 32 33" fill="none" xmlns="http://www.w3.org/2000/svg">
<path d="M17.3767 21.3209C17.1849 21.3209 17.0065 21.2903 16.8412 21.229C16.676 21.1678 16.5189 21.0628 16.3698 20.914L9.21866 13.7628C8.99855 13.5424 8.88584 13.2654 8.88053 12.9318C8.87549 12.5984 8.9882 12.3164 9.21866 12.0857C9.44938 11.8552 9.7289 11.74 10.0572 11.74C10.3855 11.74 10.665 11.8552 10.8958 12.0857L17.3767 18.567L23.8576 12.0857C24.078 11.8656 24.355 11.7529 24.6886 11.7475C25.0219 11.7425 25.304 11.8552 25.5347 12.0857C25.7651 12.3164 25.8804 12.5959 25.8804 12.9242C25.8804 13.2525 25.7651 13.5321 25.5347 13.7628L18.3835 20.914C18.2345 21.0628 18.0773 21.1678 17.9121 21.229C17.7469 21.2903 17.5684 21.3209 17.3767 21.3209Z" fill="#B2B2B2"/>
</svg>
