<svg width="48" height="80" viewBox="0 0 48 80" fill="none" xmlns="http://www.w3.org/2000/svg">
<path d="M40.0842 13.9939C39.458 12.9618 38.8843 11.8988 38.3653 10.8089C37.5374 9.434 36.4403 8.24059 35.1398 7.3003L35.6049 9.42365C34.9364 8.06852 34.0326 6.84288 32.9355 5.80384C31.429 4.58038 26.6868 4.5096 26.6868 4.5096L28.0215 6.24873C26.741 5.09821 25.2875 4.15645 23.7141 3.45804C22.3318 2.91001 21.0346 2.1678 19.8617 1.25379L21.0751 4.28715C20.1567 3.84745 19.2683 3.34754 18.4158 2.79069C17.3657 2.22603 16.5017 1.36907 15.9285 0.323559L14.6646 2.3458C14.1441 3.23948 13.6945 4.17257 13.3198 5.1365C12.3208 3.62256 11.9074 1.79658 12.157 0C10.4077 2.02224 9.01239 6.06673 8.2945 7.8463C7.5766 9.62588 5.70602 14.0344 5.70602 14.0344L4.97802 10.91C4.69476 12.8579 4.59995 14.8286 4.6949 16.7947C4.6949 20.9605 7.51593 21.3852 7.51593 21.3852C6.16857 21.256 4.86319 20.8461 3.68378 20.182C0.872864 22.73 0.357192 27.2598 0.397637 29.6865C0.639926 33.7802 1.50247 37.8134 2.95577 41.6481C4.43201 44.8533 4.83646 50.3336 4.83646 50.3336C5.32522 48.8794 5.58448 47.358 5.60491 45.824C5.60491 43.64 4.75557 38.8978 4.40168 35.9555C4.04778 33.0131 6.83848 26.097 7.72827 24.3377C8.61805 22.5783 12.4098 21.3043 12.4098 21.3043C8.8405 18.4631 9.62918 12.0425 9.62918 12.0425C10.2359 20.1314 15.9184 23.367 19.1438 23.0536C22.3693 22.7401 23.0973 23.8018 23.0973 23.8018L25.4431 24.004L26.2925 24.1456C28.3147 24.4894 28.5473 23.1345 28.5473 23.1345L31.4492 24.5905C32.6193 23.8414 33.8465 23.1855 35.1195 22.6289C37.2328 21.6886 40.62 26.3094 40.62 26.3094C41.1165 29.2537 41.3869 32.2317 41.429 35.2174C41.3481 38.8978 45.3925 45.6622 45.3622 45.3286C45.4008 43.3394 45.6311 41.3585 46.0498 39.4135C46.6463 36.9666 47.1519 34.3579 47.4653 32.7401C47.7902 31.1692 47.5428 29.5339 46.7677 28.1294C46.2293 27.3052 46.01 26.313 46.1509 25.3387C46.0042 24.4838 45.5469 23.7132 44.8668 23.1749C44.1465 21.7442 43.6714 20.2027 43.4613 18.6147C43.2085 16.2285 39.9224 11.9616 39.9224 11.9616L40.0842 13.9939Z" fill="#1A1A1A"/>
<path d="M26.3221 64.2568C26.4333 64.186 27.0905 64.4186 27.2725 64.2568C27.6293 64.1486 28.0024 64.1041 28.3747 64.1253C28.5567 64.1253 29.7195 64.4489 29.8711 64.4489C30.5448 64.7725 31.259 65.0038 31.9945 65.1365C32.2719 65.0858 32.5563 65.0858 32.8337 65.1365C32.8337 65.1365 33.9662 65.6724 34.0774 65.6724C34.1886 65.6724 34.9874 66.0768 34.9874 66.4408C35.1814 66.1631 35.3088 65.8444 35.3596 65.5095C35.4105 65.1745 35.3834 64.8324 35.2806 64.5096C34.9541 63.9197 34.5019 63.4089 33.956 63.0131C33.4376 62.575 32.8452 62.2326 32.2068 62.002C32.0803 62.0788 31.9352 62.1193 31.7872 62.1193C31.6392 62.1193 31.4941 62.0788 31.3676 62.002C30.7407 61.7795 29.8711 61.4155 29.8711 61.4155L29.2442 61.2639C29.1027 61.2639 28.7387 60.8291 28.587 60.7179C28.4353 60.6067 28.3747 60.2831 28.041 60.2426C27.6193 60.1716 27.1887 60.1716 26.767 60.2426C26.5445 60.3539 25.6345 61.0111 25.6345 61.0111C25.6345 61.0111 25.0481 63.1344 25.4121 63.7209C25.7761 64.3073 26.2109 64.3377 26.3221 64.2568Z" fill="#C47F2B"/>
<path d="M15.989 65.6825C16.0901 65.6825 17.2225 65.1466 17.2225 65.1466C17.5034 65.0958 17.7911 65.0958 18.0719 65.1466C18.7917 65.0185 19.4918 64.7976 20.1548 64.4894C20.2964 64.4894 21.4693 64.1658 21.6513 64.1658C22.0202 64.1445 22.3899 64.189 22.7433 64.2972C22.9253 64.4287 23.5825 64.1961 23.6937 64.2972C23.8049 64.3983 24.2397 64.2972 24.6037 63.7209C24.9677 63.1446 24.351 61.1223 24.3914 61.0111C24.4318 60.8999 23.4713 60.3539 23.2589 60.2426C22.8339 60.1716 22.3999 60.1716 21.9748 60.2426C21.6513 60.2426 21.5704 60.6067 21.4288 60.7179C21.2873 60.8291 20.9131 61.2335 20.7716 61.2639L20.1548 61.4155C20.1548 61.4155 19.2751 61.7795 18.6482 62.002C18.5217 62.0788 18.3766 62.1193 18.2286 62.1193C18.0806 62.1193 17.9355 62.0788 17.809 62.002C17.1706 62.2326 16.5783 62.575 16.0598 63.0131C15.5385 63.4194 15.1108 63.9333 14.806 64.5197C14.7062 64.8429 14.6807 65.1845 14.7315 65.5189C14.7823 65.8533 14.908 66.1719 15.0992 66.4509C15.0689 66.0465 15.8778 65.6825 15.989 65.6825Z" fill="#C47F2B"/>
<path d="M13.7949 66.8958C13.3982 65.9607 13.0605 65.0016 12.7838 64.0242C12.6726 63.8018 12.4906 63.7715 11.8738 63.6602C11.257 63.549 11.439 63.6602 11.1458 63.6602C10.8525 63.6602 10.8829 63.549 10.5593 63.3165C10.2358 63.0839 10.2661 62.7806 10.0436 62.5278C9.8212 62.275 9.38642 61.2841 8.72919 60.1719C8.11317 59.2229 7.61089 58.2048 7.23272 57.1385C7.16195 56.6329 5.7666 51.3347 5.7666 51.2234C5.86012 52.2437 6.01885 53.2569 6.24183 54.2568C6.44605 55.1175 6.53447 56.0016 6.50472 56.8857C6.48639 57.662 6.5714 58.4372 6.7575 59.1911C7.05073 60.2022 7.1215 61.9312 7.34395 62.9929C7.7373 64.2557 8.20319 65.4946 8.7393 66.7037C9.62308 68.5405 10.942 70.1336 12.5816 71.3448C13.6363 72.3485 14.5788 73.4639 15.3925 74.6714C15.3925 74.6714 17.2529 76.8655 17.3642 76.9059C17.4754 76.9464 19.5179 78.5136 19.5179 78.5136L20.2863 79.2416L20.9435 79.3124L21.9547 79.5652L21.8839 79.1911L23.0163 79.454C23.0163 79.454 24.8364 80 24.9476 80C25.0588 80 25.0184 79.9393 25.0588 79.8483C25.0588 79.9393 25.1498 80 25.17 80C25.1902 80 27.1114 79.454 27.1114 79.454L28.1933 79.1911L28.0821 79.5551L29.0932 79.3023L29.7504 79.2315L30.5189 78.5035C30.5189 78.5035 32.5411 76.9262 32.6725 76.8958C32.804 76.8655 34.6948 74.6612 34.6948 74.6612C35.5084 73.4538 36.451 72.3384 37.5057 71.3347C39.1421 70.1229 40.4576 68.5297 41.3379 66.6936C41.8713 65.4559 42.3372 64.1902 42.7332 62.9019C42.9455 61.8402 43.0163 60.0809 43.3095 59.1001C43.4965 58.3462 43.5849 57.5713 43.5724 56.7947C43.5363 55.911 43.6213 55.0265 43.8252 54.1658C44.0482 53.1659 44.2069 52.1527 44.3004 51.1324C44.3004 51.2437 42.9152 56.5419 42.8343 57.0475C42.4561 58.1138 41.9539 59.1319 41.3379 60.0809C40.6806 61.1931 40.2458 62.184 40.0234 62.4368C39.801 62.6896 39.8414 63.003 39.5178 63.2255C39.1943 63.4479 39.2246 63.5692 38.9314 63.5692C38.6382 63.5692 38.8202 63.458 38.1933 63.5692C37.5664 63.6805 37.3945 63.7108 37.2833 63.9332C37.0027 64.916 36.6651 65.8816 36.2721 66.825C35.9638 67.085 35.6733 67.3654 35.4026 67.6643C35.1128 68.1593 34.7919 68.6355 34.442 69.09C34.2903 69.1607 33.6028 69.9292 33.4309 69.8888C33.259 69.8483 31.9648 71.5369 31.8232 71.6784C31.6816 71.82 31.1255 72.5581 31.1255 72.5581L28.5573 74.1355C28.4739 74.2101 28.3659 74.2513 28.2539 74.2513C28.142 74.2513 28.034 74.2101 27.9506 74.1355C27.6574 73.913 27.7686 73.731 27.4754 73.731C26.935 73.5176 26.4581 73.1695 26.0901 72.7199V71.7088C26.3043 71.5749 26.5012 71.4153 26.6766 71.2335C26.6766 71.1223 26.3429 70.5763 26.3126 70.4651C26.1905 70.1597 25.955 69.9133 25.6554 69.7775L25.0285 69.545L24.4117 69.7775C24.2612 69.8415 24.1252 69.9354 24.0122 70.0536C23.8992 70.1718 23.8115 70.3118 23.7544 70.4651C23.7544 70.5763 23.35 71.1223 23.3904 71.2335C23.4309 71.3448 23.9668 71.7088 23.9668 71.7088V72.7199C23.5988 73.1695 23.1219 73.5176 22.5815 73.731C22.2883 73.731 22.3995 73.913 22.1063 74.1355C22.0659 74.1761 22.0179 74.2084 21.9649 74.2304C21.912 74.2524 21.8553 74.2638 21.7979 74.2638C21.7406 74.2638 21.6838 74.2524 21.6309 74.2304C21.578 74.2084 21.5299 74.1761 21.4895 74.1355L18.9617 72.639C18.9617 72.639 18.4157 71.911 18.2742 71.7593C18.1326 71.6077 16.8283 69.9191 16.6463 69.9595C16.4643 70 15.7666 69.2315 15.6351 69.1607C15.2852 68.7062 14.9644 68.2301 14.6746 67.7351C14.3987 67.4377 14.1049 67.1574 13.7949 66.8958Z" fill="#C47F2B"/>
</svg>
