<svg width="48" height="80" viewBox="0 0 48 80" fill="none" xmlns="http://www.w3.org/2000/svg">
<path d="M2.78319 43.6362C2.6342 43.4077 2.56467 51.1851 1.95877 52.4167C1.35287 53.6484 2.6342 60.3629 3.52815 62.1012C4.4221 63.8394 7.57078 67.0676 8.24621 68.4581C8.92164 69.8487 11.0075 74.2887 13.3318 76.4044C15.6561 78.52 20.2847 79.5431 20.2847 79.5431C21.0896 79.7725 21.9144 79.9255 22.7481 80H25.2908C26.1279 79.9263 26.956 79.7733 27.7641 79.5431C27.7641 79.5431 32.4027 78.5498 34.717 76.4044C37.0314 74.2589 39.1272 69.8984 39.8026 68.4581C40.4781 67.0179 43.6168 63.899 44.5108 62.1012C45.4047 60.3033 46.6761 53.6484 46.0801 52.4167C45.4842 51.1851 45.4146 43.4077 45.2557 43.6362C44.7794 46.0967 44.5564 48.5996 44.5902 51.1056C44.6948 53.1852 44.3104 55.2604 43.4678 57.1646C42.7924 58.734 40.925 58.883 39.9516 59.2604C39.0485 59.7845 38.2394 60.456 37.5578 61.247C37.5578 61.247 36.8129 56.2806 35.313 55.8634C33.8132 55.4462 32.2438 54.443 29.3533 52.4267C28.5891 51.8896 27.7259 51.5094 26.8138 51.3082C25.9016 51.107 24.9586 51.0888 24.0393 51.2546C23.1216 51.0891 22.1802 51.1074 21.2697 51.3086C20.3592 51.5098 19.4977 51.8899 18.7352 52.4267C15.815 54.4132 14.2456 55.486 12.7756 55.8634C11.3055 56.2408 10.5308 61.247 10.5308 61.247C9.84912 60.456 9.04004 59.7845 8.13695 59.2604C7.14368 58.883 5.29618 58.734 4.62075 57.1646C3.77817 55.2604 3.39375 53.1852 3.49835 51.1056C3.51725 48.5978 3.2776 46.0948 2.78319 43.6362ZM15.1197 57.7705C16.1621 56.9298 17.3981 56.3631 18.7154 56.1216C20.7019 55.8237 22.9765 55.4462 22.9765 55.4462L23.9698 55.7641L25.0723 55.476C25.0723 55.476 27.3171 55.8535 29.3335 56.1514C30.6484 56.3908 31.8816 56.9579 32.9192 57.8003C32.9192 57.8003 33.9125 61.535 33.2967 62.9554C32.9758 63.584 32.4595 64.0915 31.8253 64.4014C31.1912 64.7113 30.4736 64.8069 29.7805 64.6738C28.4395 64.5248 27.7939 64.4552 27.7939 63.3328C27.7939 62.2104 27.7939 60.0352 27.7939 60.0352C26.5916 60.449 25.317 60.6113 24.0492 60.5119C22.7848 60.6105 21.5136 60.4482 20.3145 60.0352C20.3145 60.0352 20.3841 62.2104 20.3145 63.3328C20.245 64.4552 19.6391 64.5248 18.328 64.6738C17.6348 64.8069 16.9172 64.7113 16.2831 64.4014C15.649 64.0915 15.1326 63.584 14.8118 62.9554C14.1562 61.5052 15.1197 57.7705 15.1197 57.7705Z" fill="#1A1A1A"/>
<path d="M0.638302 34.0312C0.95615 34.945 2.79371 41.3417 2.62486 44.3315C2.62486 44.3315 4.61141 35.9681 4.16443 33.4054C3.71746 30.8428 3.86645 25.7671 4.82 24.2176C5.77354 22.6681 7.38265 21.2378 7.43232 19.5194C7.48198 17.801 7.1542 16.2317 5.54509 15.4867C4.66807 15.5343 3.81573 15.7942 3.06137 16.2441C2.307 16.6939 1.67318 17.3202 1.2144 18.0692C0.0919991 20.2246 -0.15632 24.5156 0.221125 27.0087C0.59857 29.5018 0.320453 33.1174 0.638302 34.0312Z" fill="#C47F2B"/>
<path d="M11.0579 17.9799C13.4915 16.4999 21.2291 17.3144 21.6065 17.2548C21.984 17.1952 24.7652 18.0792 26.1259 18.0196C28.9568 17.9104 33.6252 17.6223 35.6912 18.3574C37.2229 18.9905 38.6523 19.8475 39.9325 20.9001C39.9325 20.9001 42.1177 23.7012 41.7005 24.8732C41.2834 26.0453 43.6871 28.2901 44.1738 29.4225C44.6605 30.5548 44.7201 36.0873 44.442 38.0739C44.3739 39.8312 44.6022 41.5873 45.1174 43.2687V41.0438C45.624 38.5904 46.3193 33.2267 45.9915 31.4785C45.6637 29.7304 46.5974 25.2706 46.5874 24.8137C46.5775 24.3567 46.1603 21.3769 44.9287 20.7809C43.8434 20.3058 42.7286 19.901 41.5913 19.5692C41.8893 19.4202 43.2401 20.036 46.2199 19.9267C49.1998 19.8175 47.4417 14.6127 47.3026 14.9603C47.1001 15.7841 46.5806 16.4945 45.857 16.9372C45.1334 17.3799 44.2644 17.519 43.4388 17.3243C41.2219 17.1672 38.9957 17.1971 36.7838 17.4137C38.4377 17.0589 40.1294 16.9121 41.8197 16.9767C45.0379 17.0363 46.4881 16.5993 46.9848 13.6095C47.4814 10.6197 44.1738 7.35184 43.409 7.05386C43.3383 6.77892 43.2171 6.51955 43.0514 6.28904C42.3561 5.37522 41.2933 4.30248 41.2933 4.30248L39.8232 3.17015C37.6579 1.59084 36.6845 3.43833 36.6845 3.43833C36.6845 3.43833 36.9924 3.43833 37.0123 4.99778C37.0321 6.55722 34.6979 9.05035 32.175 9.15961C29.6521 9.26887 26.2153 11.8315 26.2153 11.8315L26.2849 11.5236C26.3544 11.2157 27.4172 9.98403 30.9235 9.02055C32.1756 8.75704 33.3425 8.18596 34.3187 7.35881C35.295 6.53166 36.05 5.47447 36.5156 4.28262C37.5089 2.29606 34.7277 1.63057 33.6451 0.95514C33.4135 0.799536 33.1457 0.706398 32.8676 0.684757C32.5894 0.663116 32.3104 0.713706 32.0576 0.831623C31.8048 0.94954 31.5867 1.13078 31.4246 1.35778C31.2624 1.58477 31.1616 1.84981 31.1321 2.12721C30.9235 3.35887 27.159 5.98112 24.7751 6.80554H24.7056C25.381 6.35857 26.0564 5.95132 26.6921 5.59374C29.4236 4.10383 32.0359 2.09741 29.4137 0.388973C28.5893 -0.157329 25.7386 0.26978 25.2916 1.27299C24.4058 2.30585 23.3215 3.15028 22.1032 3.75618C24.199 1.87889 24.0897 0.905477 24.0897 0.905477C24.0897 0.905477 24.7354 0.0512584 22.7389 0.00159455C20.7424 -0.0480693 14.9714 1.05447 12.0115 4.42168C11.3758 5.14677 9.67728 7.13332 8.2569 9.13974C6.83651 11.1462 6.14122 11.3051 6.00216 12.6857C5.8631 14.0664 7.38281 16.7383 7.38281 16.7383C7.38281 16.7383 8.64427 19.4698 11.0579 17.9799ZM38.1049 12.8347C38.6909 12.7453 39.2869 12.6361 39.9027 12.5665C40.8759 12.5018 41.7912 12.0814 42.4745 11.3854C43.1577 10.6893 43.561 9.7663 43.6076 8.7921C43.6672 9.03048 43.7268 9.2788 43.7765 9.55692C44.1043 11.464 40.6874 13.8081 38.4624 13.53C36.2375 13.2519 32.2843 14.6524 32.2843 14.6524C32.5326 14.0664 35.0456 13.3512 38.1049 12.8347Z" fill="#C47F2B"/>
</svg>
