<svg width="32" height="32" viewBox="0 0 32 32" fill="none" xmlns="http://www.w3.org/2000/svg">
<path d="M16.0061 8.8127C12.0311 8.8127 8.8248 12.0189 8.8248 15.9939C8.8248 19.9689 12.0311 23.1752 16.0061 23.1752C19.9811 23.1752 23.1873 19.9689 23.1873 15.9939C23.1873 12.0189 19.9811 8.8127 16.0061 8.8127ZM16.0061 20.6627C13.4373 20.6627 11.3373 18.5689 11.3373 15.9939C11.3373 13.4189 13.4311 11.3252 16.0061 11.3252C18.5811 11.3252 20.6748 13.4189 20.6748 15.9939C20.6748 18.5689 18.5748 20.6627 16.0061 20.6627ZM25.1561 8.51895C25.1561 9.4502 24.4061 10.1939 23.4811 10.1939C22.5498 10.1939 21.8061 9.44395 21.8061 8.51895C21.8061 7.59395 22.5561 6.84395 23.4811 6.84395C24.4061 6.84395 25.1561 7.59395 25.1561 8.51895ZM29.9123 10.2189C29.8061 7.9752 29.2936 5.9877 27.6498 4.3502C26.0123 2.7127 24.0248 2.2002 21.7811 2.0877C19.4686 1.95645 12.5373 1.95645 10.2248 2.0877C7.9873 2.19395 5.9998 2.70645 4.35605 4.34395C2.7123 5.98145 2.20605 7.96895 2.09355 10.2127C1.9623 12.5252 1.9623 19.4564 2.09355 21.7689C2.1998 24.0127 2.7123 26.0002 4.35605 27.6377C5.9998 29.2752 7.98105 29.7877 10.2248 29.9002C12.5373 30.0314 19.4686 30.0314 21.7811 29.9002C24.0248 29.7939 26.0123 29.2814 27.6498 27.6377C29.2873 26.0002 29.7998 24.0127 29.9123 21.7689C30.0436 19.4564 30.0436 12.5314 29.9123 10.2189ZM26.9248 24.2502C26.4373 25.4752 25.4936 26.4189 24.2623 26.9127C22.4186 27.6439 18.0436 27.4752 16.0061 27.4752C13.9686 27.4752 9.5873 27.6377 7.7498 26.9127C6.5248 26.4252 5.58105 25.4814 5.0873 24.2502C4.35605 22.4064 4.5248 18.0314 4.5248 15.9939C4.5248 13.9564 4.3623 9.5752 5.0873 7.7377C5.5748 6.5127 6.51855 5.56895 7.7498 5.0752C9.59355 4.34395 13.9686 4.5127 16.0061 4.5127C18.0436 4.5127 22.4248 4.35019 24.2623 5.0752C25.4873 5.5627 26.4311 6.50644 26.9248 7.7377C27.6561 9.58145 27.4873 13.9564 27.4873 15.9939C27.4873 18.0314 27.6561 22.4127 26.9248 24.2502Z" fill="#DE9E48"/>
</svg>
