<svg width="25" height="20" viewBox="0 0 25 20" fill="none" xmlns="http://www.w3.org/2000/svg">
<path d="M9.62011 1.45627C7.74743 -0.286791 3.79627 -0.674406 1.63896 1.45627C-0.376638 3.44765 -0.457789 7.2705 1.63896 9.43742C3.33234 11.1889 5.72597 11.1114 6.17282 11.0896C6.14132 11.8685 6.03594 12.777 5.79125 13.769C5.37942 15.437 4.7023 16.7864 4.05424 17.8039C3.52733 18.6325 3.93311 19.8074 4.90094 19.9782C4.97483 19.9903 5.05236 20 5.13351 20C8.67042 20.0061 14.1744 5.69213 9.62011 1.45627Z" fill="#DE9E48"/>
<path d="M23.1768 1.45627C21.3041 -0.286791 17.3529 -0.674406 15.1956 1.45627C13.18 3.44765 13.0989 7.2705 15.1956 9.43742C16.889 11.1889 19.2826 11.1114 19.7295 11.0896C19.698 11.8685 19.5926 12.777 19.3479 13.769C18.9361 15.437 18.2589 16.7864 17.6109 17.8039C17.084 18.6325 17.4897 19.8074 18.4576 19.9782C18.5315 19.9903 18.609 20 18.6902 20C22.2283 20.0061 27.7323 5.69213 23.1768 1.45627Z" fill="#DE9E48"/>
</svg>
