<svg width="32" height="32" viewBox="0 0 32 32" fill="none" xmlns="http://www.w3.org/2000/svg">
<path d="M25.8062 6.06875C23.1875 3.44375 19.7 2 15.9937 2C8.34375 2 2.11875 8.225 2.11875 15.875C2.11875 18.3188 2.75625 20.7062 3.96875 22.8125L2 30L9.35625 28.0688C11.3813 29.175 13.6625 29.7563 15.9875 29.7563H15.9937C23.6375 29.7563 30 23.5312 30 15.8813C30 12.175 28.425 8.69375 25.8062 6.06875ZM15.9937 27.4188C13.9187 27.4188 11.8875 26.8625 10.1187 25.8125L9.7 25.5625L5.3375 26.7062L6.5 22.45L6.225 22.0125C5.06875 20.175 4.4625 18.0562 4.4625 15.875C4.4625 9.51875 9.6375 4.34375 16 4.34375C19.0812 4.34375 21.975 5.54375 24.15 7.725C26.325 9.90625 27.6625 12.8 27.6562 15.8813C27.6562 22.2438 22.35 27.4188 15.9937 27.4188ZM22.3188 18.7812C21.975 18.6063 20.2688 17.7688 19.95 17.6562C19.6313 17.5375 19.4 17.4812 19.1688 17.8312C18.9375 18.1812 18.275 18.9563 18.0688 19.1938C17.8688 19.425 17.6625 19.4562 17.3188 19.2812C15.2812 18.2625 13.9438 17.4625 12.6 15.1562C12.2438 14.5437 12.9562 14.5875 13.6187 13.2625C13.7312 13.0312 13.675 12.8313 13.5875 12.6562C13.5 12.4812 12.8063 10.775 12.5188 10.0813C12.2375 9.40625 11.95 9.5 11.7375 9.4875C11.5375 9.475 11.3062 9.475 11.075 9.475C10.8438 9.475 10.4688 9.5625 10.15 9.90625C9.83125 10.2563 8.9375 11.0938 8.9375 12.8C8.9375 14.5063 10.1813 16.1563 10.35 16.3875C10.525 16.6188 12.7937 20.1187 16.275 21.625C18.475 22.575 19.3375 22.6562 20.4375 22.4937C21.1063 22.3937 22.4875 21.6562 22.775 20.8438C23.0625 20.0312 23.0625 19.3375 22.975 19.1938C22.8938 19.0375 22.6625 18.95 22.3188 18.7812Z" fill="#DE9E48"/>
</svg>
