<svg width="158" height="146" viewBox="0 0 158 146" fill="none" xmlns="http://www.w3.org/2000/svg">
<path d="M37.7015 29.1097C52.8055 32.1384 73.2194 30.0005 97.9305 23.4468C95.5163 22.4322 93.6472 21.6715 92.6862 21.4819C89.3495 20.8128 81.0697 17.8373 81.0697 17.8373C81.0697 17.8373 80.5094 20.3832 79.8295 20.0763C79.152 19.7641 50.7053 6.82328 50.7053 6.82328C50.7053 6.82328 50.5723 -1.72859 55.2412 0.31574C58.3229 1.66735 85.8293 13.7159 104.135 21.7332C105.794 21.2545 107.471 20.7677 109.168 20.2544C111.016 19.6162 111.668 21.6852 110.452 24.4988C116.492 27.1467 120.506 28.9049 120.506 28.9049C120.506 28.9049 121.909 30.3435 120.494 30.9487C116.7 30.4655 112.348 29.1233 108.198 27.5944C96.1469 36.9235 44.2704 40.2541 40.7003 39.436C37.0298 38.5998 35.2635 27.1488 37.7015 29.1097ZM104.112 26.6326C104.761 26.6371 105.291 26.1106 105.296 25.4656C105.3 24.8157 104.776 24.2858 104.126 24.2803C103.477 24.2759 102.947 24.7997 102.943 25.4496C102.939 26.0959 103.464 26.6289 104.112 26.6326Z" fill="#B2B2B2"/>
<path d="M23.489 62.3768C23.0935 62.0185 22.6529 61.6841 22.1663 61.3727C21.7671 61.1044 21.2887 60.861 20.7305 60.6422C20.1697 60.4224 19.573 60.3204 18.9398 60.3364L9.88564 60.5651L9.88328 82.7324L16.7423 82.0374L16.8113 82.0303C17.2249 81.9886 17.6601 81.838 18.1167 81.5794C18.5721 81.3216 18.9805 81.0338 19.3424 80.7159C19.7938 80.3432 20.2211 79.9272 20.625 79.4674L20.6222 90.9113C20.2636 90.5845 19.8814 90.2837 19.4757 90.008C19.1142 89.773 18.7064 89.5665 18.2515 89.3892C17.7957 89.2111 17.3151 89.1539 16.81 89.2177L16.741 89.2266L9.88223 90.0948L9.88013 107.73C9.88013 108.312 9.98872 108.862 10.2054 109.379C10.422 109.894 10.6741 110.342 10.9618 110.721C11.2968 111.186 11.6784 111.593 12.1068 111.94L0 114.399C0.412066 113.763 0.797639 113.135 1.15646 112.513C1.46308 111.953 1.74374 111.373 1.99869 110.775C2.25311 110.178 2.3798 109.606 2.38007 109.058L2.38138 57.3132C2.38138 56.8644 2.25443 56.4043 1.99974 55.9324C1.74505 55.46 1.46413 55.0241 1.15725 54.6254C0.797902 54.1255 0.412328 53.6497 0 53.1978H22.1687L23.489 62.3768Z" fill="#B2B2B2"/>
<path d="M38.6818 53.2065C38.2616 53.5231 37.8875 53.9079 37.5597 54.3612C37.2787 54.7239 37.0325 55.1551 36.8213 55.6548C36.6099 56.1545 36.5042 56.6993 36.5042 57.2889L36.5039 103.833C36.5039 104.468 36.6099 105.048 36.8213 105.573C37.0322 106.098 37.2785 106.552 37.5597 106.934C37.8875 107.402 38.2613 107.796 38.6818 108.119L26.8281 109.235C27.2163 108.783 27.5799 108.289 27.919 107.751C28.2091 107.31 28.4748 106.826 28.7164 106.299C28.9574 105.772 29.0781 105.21 29.0781 104.612L29.0786 57.4785C29.0786 56.9734 28.958 56.4687 28.7169 55.9643C28.4756 55.4597 28.2096 55.0006 27.9195 54.5873C27.5806 54.0816 27.2168 53.6212 26.8286 53.2065H38.6818Z" fill="#B2B2B2"/>
<path d="M55.3128 78.5881L67.3623 78.3578L67.3592 84.8108L67.3532 96.6233C67.3524 98.0436 67.0589 99.3776 66.4721 100.626C65.8848 101.875 65.0856 102.983 64.0737 103.949C63.0602 104.917 61.8801 105.698 60.5319 106.292C59.1814 106.888 57.7209 107.218 56.1505 107.282L54.0026 107.37C52.4233 107.434 50.9484 107.222 49.579 106.732C48.2067 106.241 47.0006 105.545 45.9622 104.645C44.9219 103.744 44.0986 102.68 43.4932 101.453C42.8871 100.225 42.5844 98.8874 42.5859 97.4401L42.6177 63.5843C42.619 62.1391 42.9238 60.7904 43.5318 59.5397C44.139 58.2902 44.9636 57.1943 46.0047 56.2519C47.0439 55.3113 48.2499 54.5682 49.622 54.0221C50.9912 53.4773 52.465 53.2056 54.0427 53.2056H56.2599C57.8284 53.2056 59.2868 53.4757 60.6355 54.0153C61.9816 54.554 63.148 55.2858 64.1358 56.2107C65.1223 57.1342 65.9082 58.2075 66.4936 59.4311C67.0785 60.6537 67.3707 61.9741 67.3699 63.3928L67.3689 65.3921C67.3686 65.9938 67.4851 66.5947 67.7188 67.194C67.9525 67.7934 68.2096 68.3277 68.4897 68.7969C68.8165 69.3514 69.19 69.8836 69.6097 70.3935L57.8169 70.5477C58.2444 70.1957 58.6245 69.8012 58.9566 69.3643C59.2412 69.0146 59.5021 68.6007 59.7393 68.1223C59.9764 67.6439 60.0952 67.1237 60.0954 66.5616L60.0976 63.449C60.0981 62.4549 59.7198 61.625 58.9621 60.9593C58.2035 60.2928 57.3015 59.962 56.2552 59.9673L54.0377 59.9786C52.9385 59.9841 52.0165 60.3258 51.2729 61.0044C50.5285 61.6835 50.1558 62.5244 50.155 63.5258L50.1277 97.1914C50.1269 98.1944 50.4989 99.0212 51.2425 99.6709C51.9855 100.32 52.9075 100.624 54.0078 100.585L56.1553 100.509C57.2501 100.47 58.1652 100.101 58.9015 99.4039C59.637 98.7069 60.0047 97.861 60.0052 96.8656L60.0128 85.0521C59.3495 85.0246 58.7328 85.1043 58.1631 85.2916C57.5932 85.4786 57.0937 85.6751 56.6654 85.8807C56.2368 86.0866 55.9032 86.2902 55.6648 86.4913C55.4261 86.6928 55.3067 86.8153 55.3067 86.8585L55.3128 78.5881Z" fill="#B2B2B2"/>
<path d="M88.8333 106.935C89.3099 106.457 89.7154 105.979 90.0491 105.499C90.3352 105.063 90.5855 104.561 90.8003 103.992C91.0151 103.423 91.0749 102.83 90.9794 102.214C90.8842 101.598 90.789 100.971 90.6935 100.333C90.5986 99.6949 90.5031 99.1336 90.4079 98.6494C90.3127 98.0773 90.2172 97.5053 90.1223 96.9332L80.6295 96.8448L79.8458 102.229C79.7508 102.755 79.8101 103.292 80.0236 103.842C80.2371 104.393 80.4863 104.889 80.7712 105.33C81.1035 105.86 81.4836 106.368 81.9108 106.856L70.3242 106.723C70.7024 106.377 71.0335 106.009 71.317 105.619C71.5536 105.271 71.7784 104.913 71.9911 104.543C72.2041 104.174 72.3578 103.814 72.4525 103.465C72.5 103.291 72.6064 102.526 72.772 101.171C72.9377 99.8156 73.1743 98.0668 73.4823 95.9244C73.7899 93.782 74.1215 91.3652 74.4769 88.6748C74.8323 85.9837 75.1995 83.2375 75.5788 80.4359C75.9581 77.6338 76.3255 74.8967 76.6812 72.2247C77.0369 69.5525 77.3692 67.1533 77.6777 65.0279C77.9861 62.9017 78.2235 61.17 78.3898 59.8329C78.5558 58.4954 78.6628 57.7607 78.7103 57.6293C78.8053 57.147 78.7342 56.6533 78.4968 56.1489C78.2597 55.6443 77.9987 55.1727 77.7139 54.7341C77.3818 54.2518 77.0025 53.7474 76.5755 53.2212H94.2836C93.8057 53.7489 93.3996 54.2552 93.0649 54.7391C92.7785 55.179 92.5278 55.6516 92.3127 56.1573C92.0979 56.6633 92.0381 57.1139 92.1335 57.51C92.1335 57.5981 92.2287 58.3018 92.4194 59.6217C92.6101 60.9418 92.8485 62.6465 93.1344 64.7367C93.4206 66.8272 93.7424 69.2146 94.1002 71.8995C94.458 74.5849 94.8158 77.3253 95.1735 80.1209C95.531 82.9169 95.8891 85.6582 96.2468 88.3449C96.6049 91.0316 96.939 93.4546 97.2493 95.6133C97.5596 97.7725 97.8101 99.5572 98.0011 100.967C98.1923 102.377 98.3116 103.171 98.3594 103.347C98.4548 103.744 98.6222 104.164 98.8614 104.607C99.1006 105.05 99.3398 105.449 99.579 105.803C99.8662 106.247 100.201 106.669 100.584 107.069L88.8333 106.935ZM89.1224 90.2685L85.4117 60.6003L81.6989 90.21L89.1224 90.2685Z" fill="#B2B2B2"/>
<path d="M127.638 104.694C127.638 105.236 127.748 105.776 127.968 106.311C128.188 106.847 128.445 107.329 128.739 107.758C129.082 108.28 129.475 108.739 129.918 109.134L117.993 108.266C118.375 107.847 118.734 107.403 119.069 106.936C119.357 106.509 119.62 106.035 119.86 105.514C120.1 104.993 120.221 104.464 120.221 103.926L120.225 93.9761C120.226 92.945 119.854 92.0737 119.111 91.3641C118.37 90.6557 117.474 90.2761 116.427 90.2247L111.959 90.0057L111.958 103.307C111.958 103.883 112.063 104.433 112.275 104.958C112.486 105.482 112.733 105.976 113.016 106.44C113.346 106.951 113.723 107.466 114.147 107.986L102.772 107.158C103.139 106.659 103.483 106.158 103.805 105.655C104.08 105.193 104.333 104.706 104.563 104.195C104.793 103.685 104.909 103.188 104.909 102.705L104.901 57.8478C104.901 57.275 104.785 56.7129 104.554 56.1613C104.324 55.6099 104.07 55.1139 103.794 54.6733C103.471 54.1888 103.127 53.7049 102.759 53.2212H116.723C118.299 53.2212 119.774 53.5021 121.145 54.0655C122.522 54.631 123.733 55.4014 124.778 56.3769C125.826 57.3552 126.655 58.4933 127.266 59.7906C127.878 61.0903 128.184 62.4899 128.183 63.9889L128.172 78.3543C128.171 80.0325 127.778 81.5829 126.993 83.0027C126.21 84.4196 125.137 85.5952 123.776 86.529C124.941 87.5281 125.878 88.7226 126.585 90.1125C127.293 91.5045 127.647 92.994 127.646 94.5788L127.638 104.694ZM116.715 81.8654C117.811 81.9071 118.732 81.595 119.475 80.9277C120.219 80.2594 120.592 79.4192 120.592 78.4312L120.599 63.8935C120.599 62.8592 120.227 61.9782 119.482 61.2734C118.739 60.5702 117.819 60.2137 116.721 60.2037L111.962 60.1597L111.96 81.6852L116.715 81.8654Z" fill="#B2B2B2"/>
<path d="M145.952 53.2212C147.529 53.2212 149.024 53.5307 150.424 54.1542C151.824 54.7834 153.073 55.6466 154.155 56.7454C155.246 57.8517 156.1 59.1205 156.741 60.5497C157.384 61.985 157.706 63.5134 157.704 65.131L157.669 102.485C157.667 104.103 157.343 105.567 156.697 106.875C156.054 108.177 155.184 109.261 154.067 110.122C152.957 110.977 151.694 111.578 150.294 111.93C148.894 112.275 147.398 112.288 145.822 111.975L143.684 111.62C142.147 111.315 140.719 110.73 139.408 109.871C138.12 109.022 136.979 107.989 135.992 106.775C135.013 105.569 134.26 104.264 133.71 102.854C133.163 101.45 132.89 100.005 132.892 98.5177L132.927 64.172C132.929 62.6848 133.204 61.2954 133.755 60.0005C134.307 58.7005 135.062 57.5457 136.044 56.5356C137.032 55.5184 138.175 54.7129 139.464 54.1201C140.776 53.522 142.205 53.2212 143.742 53.2212H145.952ZM149.908 64.9605C149.909 63.9215 149.517 62.9295 148.723 61.9997C147.945 61.0751 147.014 60.6011 145.957 60.5749L143.723 60.5193C142.642 60.4925 141.731 60.9114 141.011 61.7731C140.283 62.6302 139.925 63.5653 139.924 64.5699L139.889 99.4418C139.888 100.447 140.243 101.453 140.97 102.455C141.689 103.46 142.599 104.059 143.679 104.247L145.842 104.552C146.947 104.744 147.89 104.468 148.646 103.717C149.417 102.965 149.798 102.061 149.799 101.022L149.908 64.9605Z" fill="#B2B2B2"/>
<path d="M48.4488 120.413C50.1881 120.63 51.5444 121.063 52.527 121.723C53.5098 122.383 54.1647 123.158 54.4971 124.048C54.8291 124.934 54.8661 125.87 54.6078 126.849C54.3447 127.831 53.8371 128.745 53.0899 129.598C52.3379 130.452 51.3737 131.185 50.1973 131.794C49.0164 132.403 47.6737 132.772 46.1653 132.901C47.1064 133.16 47.8859 133.58 48.5089 134.161C49.1271 134.747 49.5977 135.406 49.9205 136.149C50.2434 136.887 50.4281 137.672 50.474 138.493C50.5202 139.314 50.4325 140.108 50.2112 140.878C49.9436 141.75 49.5515 142.493 49.0348 143.115C48.5181 143.734 47.9137 144.25 47.2307 144.661C46.548 145.067 45.8054 145.376 45.0025 145.588C44.2046 145.796 43.3786 145.92 42.5299 145.962C41.6763 146.003 40.8228 145.962 39.9649 145.847C39.1019 145.726 38.2854 145.547 37.515 145.312C36.2786 144.924 35.3236 144.366 34.6455 143.641C33.972 142.913 33.5245 142.124 33.2984 141.27C33.0723 140.417 33.04 139.549 33.2016 138.677C33.3629 137.801 33.6722 137.016 34.1243 136.32C34.5763 135.623 35.1531 135.074 35.845 134.673C36.5417 134.272 37.2937 134.115 38.101 134.198C38.3455 134.225 38.5162 134.387 38.6085 134.682C38.6959 134.977 38.7329 135.328 38.7101 135.743C38.687 136.154 38.613 136.592 38.4931 137.063C38.3777 137.533 38.2301 137.958 38.0501 138.331C37.6766 138.151 37.3304 138.105 37.0167 138.179C36.6985 138.253 36.4263 138.424 36.2002 138.682C35.9696 138.945 35.808 139.268 35.7065 139.651C35.605 140.034 35.5819 140.43 35.642 140.841C35.7021 141.251 35.8634 141.653 36.1217 142.036C36.3848 142.423 36.763 142.746 37.2567 143C37.2428 142.871 37.3306 142.483 37.5198 141.837C37.7089 141.192 37.9581 140.412 38.267 139.503C38.5716 138.59 38.9083 137.616 39.2727 136.578C39.6373 135.54 39.9832 134.557 40.3153 133.635C40.6521 132.712 40.9383 131.914 41.1827 131.245C41.4224 130.572 41.5748 130.161 41.6255 130.004C40.6059 129.718 39.7849 129.257 39.1573 128.62C38.5301 127.984 38.138 127.264 37.9764 126.466C37.8104 125.667 37.8841 124.86 38.1931 124.044C38.5023 123.222 39.0791 122.503 39.9326 121.875C40.7859 121.252 41.9116 120.791 43.3188 120.5C44.7211 120.205 46.4328 120.178 48.4488 120.413ZM39.4343 143.678C40.8598 143.95 42.1099 143.927 43.1848 143.609C44.2644 143.291 45.1363 142.806 45.8099 142.161C46.4834 141.51 46.9448 140.758 47.194 139.914C47.4432 139.065 47.4663 138.244 47.2677 137.45C47.0647 136.657 46.6172 135.96 45.9205 135.356C45.2242 134.756 44.2736 134.373 43.0649 134.202C42.8205 134.811 42.5621 135.485 42.2807 136.237C42.004 136.984 41.7039 137.773 41.3857 138.604C41.072 139.434 40.7491 140.283 40.4168 141.15C40.0892 142.017 39.7571 142.857 39.4343 143.678ZM44.2274 131.218C45.5331 131.222 46.6589 131.01 47.6092 130.581C48.5595 130.147 49.3207 129.598 49.9019 128.934C50.4787 128.265 50.8617 127.541 51.0555 126.756C51.2446 125.972 51.2354 125.225 51.0277 124.514C50.8202 123.808 50.405 123.19 49.7865 122.659C49.1638 122.134 48.3242 121.797 47.2632 121.645C46.299 121.525 45.4547 121.575 44.7303 121.806C44.0061 122.032 43.3878 122.364 42.8758 122.798C42.3638 123.232 41.9578 123.748 41.658 124.343C41.3579 124.934 41.178 125.529 41.1087 126.124C41.0442 126.715 41.0812 127.282 41.2197 127.822C41.3626 128.362 41.621 128.805 41.9945 129.15C42.5852 127.573 43.0833 126.323 43.5032 125.395C43.9184 124.473 44.3059 123.758 44.6704 123.245C44.8918 122.904 45.1872 122.655 45.5562 122.498C45.9253 122.341 46.3174 122.253 46.7234 122.245C47.1292 122.231 47.5077 122.286 47.8584 122.411C48.2088 122.535 48.4719 122.706 48.6471 122.927C48.4026 122.918 48.1674 123.019 47.9321 123.222C47.6968 123.43 47.4201 123.831 47.1017 124.427C46.7835 125.022 46.4005 125.866 45.9484 126.95C45.4962 128.039 44.9241 129.46 44.2274 131.218Z" fill="#B2B2B2"/>
<path d="M63.4529 132.2C63.605 131.923 63.7619 131.734 63.914 131.642C64.0711 131.55 64.2002 131.517 64.3108 131.554C64.4171 131.586 64.4769 131.679 64.4955 131.836C64.5139 131.993 64.4677 132.186 64.3478 132.426C64.0756 132.943 63.7435 133.529 63.3514 134.193C62.9592 134.853 62.5348 135.476 62.0735 136.062C61.6165 136.647 61.1368 137.155 60.6295 137.579C60.1264 138.004 59.6236 138.244 59.13 138.308C58.9131 138.331 58.7242 138.313 58.5674 138.248C58.4103 138.184 58.2857 138.105 58.1889 138.004C58.0921 137.902 58.0137 137.801 57.9536 137.699C57.8983 137.593 57.8521 137.515 57.829 137.464C57.2478 138.165 56.6343 138.599 55.9977 138.76C55.3564 138.922 54.7887 138.853 54.2951 138.553C53.8062 138.248 53.4324 137.732 53.1741 137.003C52.916 136.274 52.879 135.356 53.0589 134.258C53.3173 132.721 53.7278 131.499 54.2951 130.595C54.8627 129.686 55.4993 129.026 56.196 128.606C56.8971 128.182 57.6076 127.956 58.3321 127.924C59.0516 127.891 59.6837 127.97 60.228 128.163C60.5786 128.288 60.8509 128.463 61.0445 128.694C61.2383 128.92 61.3768 129.16 61.4552 129.423C61.5337 129.681 61.5567 129.953 61.5289 130.235C61.4967 130.516 61.4138 130.779 61.2753 131.019C61.4183 131.13 61.5014 131.259 61.5198 131.407C61.1554 131.951 60.8278 132.532 60.5325 133.146C60.2371 133.759 59.9835 134.327 59.7805 134.853C59.5775 135.379 59.4345 135.826 59.3608 136.186C59.2824 136.551 59.2916 136.744 59.3884 136.767C59.739 136.892 60.2741 136.564 60.9939 135.776C61.7183 134.991 62.5348 133.801 63.4529 132.2ZM57.8245 135.148C57.8844 134.899 57.9767 134.585 58.0965 134.212C58.2211 133.833 58.3549 133.441 58.512 133.031C58.6642 132.62 58.8255 132.228 58.9915 131.845C59.1578 131.462 59.3191 131.139 59.4715 130.876C59.6053 130.599 59.5914 130.355 59.4253 130.147C59.2593 129.935 59.0054 129.889 58.655 130.018C58.309 130.143 57.9122 130.502 57.4647 131.098C57.0169 131.688 56.5789 132.661 56.1498 134.018C55.7807 135.213 55.6192 136.08 55.6745 136.61C55.7299 137.146 55.887 137.423 56.1406 137.446C56.3943 137.473 56.6896 137.275 57.0308 136.851C57.3676 136.426 57.6307 135.858 57.8245 135.148Z" fill="#B2B2B2"/>
<path d="M72.1626 131.133C72.315 130.857 72.4718 130.672 72.624 130.58C72.7808 130.483 72.9146 130.455 73.0208 130.487C73.1268 130.52 73.1869 130.617 73.2052 130.769C73.2283 130.926 73.1777 131.124 73.0578 131.359C72.8039 131.876 72.4763 132.485 72.0703 133.196C71.6645 133.906 71.2215 134.584 70.7462 135.225C70.2665 135.871 69.7684 136.425 69.2469 136.886C68.7302 137.352 68.2227 137.611 67.7293 137.675C67.5076 137.698 67.254 137.643 66.9678 137.5C66.6819 137.361 66.4236 137.098 66.2022 136.716C65.9808 136.337 65.8193 135.811 65.7177 135.147C65.6162 134.483 65.6624 133.634 65.8515 132.61C65.2886 132.734 64.7674 132.711 64.283 132.55L63.9415 133.177C63.8678 133.316 63.7754 133.38 63.6739 133.362C63.568 133.348 63.4756 133.288 63.4019 133.186C63.3232 133.085 63.2726 132.96 63.2448 132.817C63.2173 132.67 63.2404 132.527 63.3141 132.388L63.4478 132.121C63.0649 131.724 62.8391 131.175 62.7606 130.478C62.6867 129.782 62.7236 129.103 62.8713 128.444C63.0234 127.784 63.2865 127.217 63.6556 126.746C64.0246 126.271 64.4813 126.049 65.0211 126.077C65.2472 126.086 65.4502 126.192 65.6301 126.391C65.8145 126.594 65.9438 126.875 66.0131 127.235C66.0868 127.6 66.096 128.033 66.0362 128.545C65.9761 129.053 65.8192 129.629 65.5653 130.275C65.9761 130.132 66.3821 129.86 66.7882 129.468C67.1987 129.076 67.5769 128.513 67.9368 127.78C68.0474 127.507 68.3011 127.332 68.6932 127.253C69.0809 127.18 69.5562 127.124 70.1096 127.097C70.2943 127.092 70.4233 127.129 70.4973 127.203C70.571 127.276 70.608 127.374 70.6032 127.493C70.5988 127.618 70.571 127.738 70.5248 127.867C70.4742 127.996 70.428 128.107 70.3819 128.204C70.2158 128.504 70.0359 128.887 69.8421 129.357C69.6482 129.828 69.4547 130.331 69.2608 130.866C69.067 131.401 68.8871 131.941 68.721 132.494C68.5594 133.043 68.4259 133.551 68.3244 134.017C68.2229 134.487 68.1676 134.879 68.149 135.198C68.1306 135.516 68.1768 135.714 68.2783 135.793C68.4396 135.904 68.6473 135.871 68.9054 135.687C69.1638 135.507 69.4547 135.216 69.7867 134.815C70.1188 134.409 70.4834 133.897 70.8802 133.274C71.2768 132.646 71.7059 131.936 72.1626 131.133ZM64.7444 127.692C64.6381 127.706 64.5413 127.816 64.4674 128.019C64.389 128.227 64.3383 128.462 64.3152 128.734C64.2922 129.007 64.3013 129.283 64.3336 129.556C64.3661 129.832 64.4398 130.035 64.5505 130.169C64.652 129.934 64.7305 129.675 64.7858 129.39C64.8459 129.103 64.8873 128.831 64.9104 128.577C64.9335 128.324 64.9335 128.116 64.9057 127.955C64.8734 127.789 64.8228 127.701 64.7444 127.692Z" fill="#B2B2B2"/>
<path d="M82.1355 129.878C82.2692 129.638 82.4122 129.467 82.5599 129.366C82.7031 129.264 82.8321 129.232 82.9381 129.264C83.0443 129.301 83.1136 129.393 83.1506 129.545C83.1873 129.698 83.155 129.891 83.0582 130.127C82.6338 131.072 82.0618 131.815 81.3373 132.36C80.6131 132.904 79.8703 133.222 79.0999 133.319C78.5001 134.173 77.8081 134.893 77.0239 135.483C76.2396 136.069 75.4184 136.41 74.5557 136.498C73.8037 136.572 73.2224 136.318 72.8164 135.732C72.4104 135.151 72.1475 134.366 72.0277 133.379C71.9075 132.392 71.9167 131.248 72.0691 129.961C72.2168 128.669 72.4612 127.354 72.8117 126.021C73.1579 124.688 73.5959 123.391 74.1313 122.136C74.6664 120.882 75.2662 119.793 75.9304 118.866C76.5995 117.938 77.3098 117.232 78.0665 116.748C78.8277 116.264 79.6075 116.134 80.4148 116.351C81.1298 116.54 81.5818 116.919 81.7803 117.477C81.9786 118.04 81.9878 118.732 81.7987 119.553C81.614 120.374 81.2589 121.297 80.7469 122.316C80.2302 123.336 79.6028 124.383 78.8599 125.458C79.1461 125.37 79.4367 125.333 79.7365 125.352C80.2994 125.375 80.7099 125.587 80.973 125.979C81.2358 126.376 81.3604 126.879 81.3512 127.497C81.3465 128.111 81.2266 128.798 80.9913 129.559C80.7608 130.32 80.4424 131.082 80.0319 131.838C80.4424 131.677 80.8298 131.437 81.1991 131.123C81.5681 130.809 81.8818 130.394 82.1355 129.878ZM78.7078 128.517C78.4678 128.544 78.2648 128.66 78.094 128.858C77.9188 129.056 77.7942 129.287 77.7158 129.559C77.6374 129.827 77.6051 130.118 77.6143 130.436C77.6282 130.75 77.6927 131.031 77.8173 131.276C77.9972 130.916 78.1541 130.57 78.2879 130.228C78.4216 129.887 78.5279 129.587 78.6108 129.338C78.6892 129.084 78.7401 128.886 78.7584 128.734C78.7768 128.581 78.7584 128.512 78.7078 128.517ZM79.4873 119.221C79.3074 119.133 79.0354 119.331 78.6661 119.811C78.2973 120.296 77.9049 120.951 77.4897 121.781C77.07 122.612 76.6548 123.576 76.2396 124.665C75.8244 125.758 75.4829 126.861 75.2106 127.972L75.2153 128.023C75.9904 126.907 76.6732 125.832 77.2731 124.789C77.8682 123.751 78.3571 122.833 78.7309 122.035C79.1091 121.232 79.3628 120.586 79.4965 120.083C79.6303 119.585 79.6258 119.299 79.4873 119.221ZM74.6202 134.759C74.9987 134.786 75.3861 134.611 75.7966 134.223C76.2026 133.84 76.5856 133.356 76.9407 132.775C76.4657 132.387 76.1656 131.861 76.0366 131.202C75.912 130.537 75.9073 129.855 76.0227 129.154C75.7966 129.439 75.5613 129.721 75.303 129.993C75.0493 130.265 74.8001 130.537 74.5557 130.809C74.4358 131.345 74.3343 131.852 74.2511 132.323C74.1727 132.798 74.1266 133.213 74.1127 133.568C74.0988 133.924 74.1357 134.205 74.2189 134.417C74.302 134.634 74.4358 134.745 74.6202 134.759Z" fill="#B2B2B2"/>
<path d="M91.5959 128.801C91.7297 128.524 91.8729 128.33 92.025 128.219C92.1772 128.109 92.3065 128.067 92.4124 128.1C92.5187 128.136 92.5924 128.229 92.6293 128.381C92.6663 128.533 92.6341 128.731 92.5326 128.967C92.3802 129.354 92.1496 129.816 91.8543 130.346C91.5545 130.872 91.1993 131.412 90.7838 131.952C90.3689 132.496 89.8983 133.013 89.3861 133.506C88.8694 133.995 88.3204 134.406 87.7391 134.738C87.1579 135.07 86.5444 135.292 85.8983 135.412C85.2526 135.527 84.5882 135.467 83.9101 135.236C83.1765 134.992 82.632 134.54 82.2815 133.875C81.9309 133.211 81.7417 132.464 81.7139 131.633C81.6864 130.798 81.8016 129.945 82.0646 129.064C82.3322 128.187 82.729 127.403 83.2549 126.715C83.7855 126.028 84.4221 125.511 85.1694 125.161C85.917 124.805 86.7474 124.732 87.6654 124.935C88.2558 125.068 88.6989 125.345 88.9939 125.76C89.2846 126.18 89.4553 126.674 89.5107 127.246C89.5613 127.818 89.4968 128.427 89.3168 129.082C89.1369 129.737 88.8649 130.365 88.5003 130.964C88.1404 131.569 87.6977 132.113 87.1854 132.602C86.669 133.096 86.0922 133.465 85.4509 133.709C85.9859 133.811 86.5352 133.746 87.1025 133.52C87.6654 133.294 88.2236 132.948 88.7726 132.491C89.3216 132.035 89.8383 131.486 90.3272 130.84C90.8117 130.194 91.236 129.516 91.5959 128.801ZM87.2363 127.804C87.038 127.717 86.7841 127.827 86.4657 128.136C86.1522 128.446 85.843 128.842 85.5432 129.336C85.2387 129.829 84.9803 130.36 84.7634 130.937C84.5467 131.509 84.4266 132.021 84.4082 132.473C84.9942 132.251 85.497 131.896 85.9214 131.407C86.3458 130.918 86.6781 130.42 86.9226 129.903C87.1671 129.391 87.3147 128.934 87.3656 128.528C87.4162 128.122 87.3745 127.878 87.2363 127.804Z" fill="#B2B2B2"/>
<path d="M101.505 127.528C101.657 127.252 101.814 127.062 101.966 126.97C102.123 126.878 102.252 126.845 102.363 126.882C102.469 126.915 102.529 127.007 102.548 127.164C102.566 127.321 102.52 127.514 102.4 127.754C102.128 128.271 101.795 128.857 101.403 129.521C101.011 130.181 100.587 130.804 100.125 131.39C99.6686 131.975 99.1888 132.483 98.6813 132.907C98.1785 133.332 97.6756 133.572 97.182 133.636C96.9651 133.659 96.776 133.641 96.6191 133.576C96.4623 133.512 96.3377 133.433 96.2409 133.332C96.1438 133.23 96.0657 133.129 96.0056 133.028C95.9503 132.921 95.9041 132.843 95.881 132.792C95.2998 133.493 94.686 133.927 94.0494 134.088C93.4084 134.25 92.8408 134.181 92.3471 133.881C91.8582 133.576 91.4844 133.06 91.2261 132.331C90.9677 131.602 90.9307 130.684 91.1106 129.586C91.369 128.05 91.7798 126.827 92.3471 125.923C92.9147 125.014 93.5513 124.354 94.2477 123.934C94.9491 123.51 95.6596 123.284 96.3838 123.252C97.1036 123.219 97.7354 123.298 98.28 123.492C98.6307 123.616 98.9027 123.791 99.0965 124.022C99.2903 124.248 99.4286 124.488 99.5072 124.751C99.5857 125.009 99.6087 125.281 99.5809 125.563C99.5487 125.844 99.4655 126.107 99.3273 126.347C99.4703 126.458 99.5531 126.587 99.5718 126.735C99.2072 127.279 98.8798 127.86 98.5845 128.474C98.2891 129.088 98.0355 129.655 97.8325 130.181C97.6295 130.707 97.4865 131.154 97.4126 131.514C97.3341 131.879 97.3436 132.072 97.4404 132.096C97.791 132.22 98.3261 131.893 99.0459 131.104C99.7701 130.319 100.587 129.129 101.505 127.528ZM95.8763 130.476C95.9364 130.227 96.0287 129.913 96.1486 129.54C96.2731 129.161 96.4069 128.769 96.5638 128.359C96.7159 127.948 96.8775 127.556 97.0435 127.173C97.2095 126.79 97.3711 126.467 97.5232 126.204C97.6573 125.927 97.6434 125.683 97.4773 125.475C97.311 125.263 97.0574 125.217 96.7067 125.346C96.3608 125.471 95.9642 125.83 95.5164 126.426C95.0689 127.016 94.6307 127.99 94.2018 129.346C93.8327 130.541 93.6712 131.408 93.7265 131.939C93.7819 132.474 93.9387 132.751 94.1924 132.774C94.4463 132.801 94.7416 132.603 95.0828 132.178C95.4196 131.754 95.6827 131.187 95.8763 130.476Z" fill="#B2B2B2"/>
<path d="M110.213 126.461C110.366 126.184 110.522 126 110.675 125.908C110.832 125.811 110.965 125.783 111.071 125.816C111.178 125.848 111.238 125.945 111.256 126.097C111.279 126.254 111.229 126.452 111.108 126.687C110.855 127.204 110.527 127.813 110.121 128.524C109.715 129.234 109.272 129.912 108.797 130.553C108.317 131.199 107.819 131.753 107.298 132.214C106.781 132.68 106.274 132.939 105.78 133.003C105.559 133.026 105.305 132.971 105.019 132.828C104.733 132.69 104.474 132.427 104.253 132.044C104.031 131.665 103.87 131.139 103.769 130.475C103.667 129.811 103.713 128.962 103.902 127.938C103.339 128.062 102.818 128.039 102.334 127.878L101.992 128.505C101.919 128.643 101.826 128.708 101.725 128.69C101.619 128.676 101.527 128.616 101.453 128.514C101.374 128.413 101.323 128.288 101.296 128.145C101.268 127.998 101.291 127.855 101.365 127.716L101.499 127.449C101.116 127.052 100.89 126.503 100.811 125.806C100.738 125.11 100.775 124.432 100.922 123.772C101.074 123.112 101.337 122.545 101.706 122.074C102.075 121.599 102.532 121.377 103.072 121.405C103.298 121.414 103.501 121.521 103.681 121.719C103.865 121.922 103.994 122.203 104.064 122.563C104.138 122.928 104.147 123.361 104.087 123.873C104.027 124.381 103.87 124.957 103.616 125.603C104.027 125.46 104.433 125.188 104.839 124.796C105.25 124.404 105.628 123.841 105.988 123.107C106.098 122.835 106.352 122.66 106.744 122.582C107.132 122.508 107.607 122.452 108.16 122.425C108.345 122.42 108.474 122.457 108.548 122.531C108.622 122.605 108.659 122.701 108.654 122.821C108.649 122.946 108.622 123.066 108.576 123.195C108.525 123.324 108.479 123.435 108.433 123.532C108.267 123.832 108.087 124.215 107.893 124.685C107.699 125.156 107.505 125.659 107.312 126.194C107.118 126.729 106.938 127.269 106.772 127.822C106.61 128.371 106.477 128.879 106.375 129.345C106.274 129.815 106.218 130.208 106.2 130.526C106.181 130.844 106.227 131.042 106.329 131.121C106.49 131.232 106.698 131.199 106.956 131.015C107.215 130.835 107.505 130.544 107.838 130.143C108.17 129.737 108.534 129.225 108.931 128.602C109.328 127.975 109.757 127.264 110.213 126.461ZM102.795 123.02C102.689 123.033 102.592 123.144 102.518 123.347C102.44 123.555 102.389 123.79 102.366 124.062C102.343 124.334 102.352 124.611 102.384 124.884C102.417 125.16 102.491 125.363 102.601 125.497C102.703 125.262 102.781 125.004 102.837 124.717C102.896 124.432 102.938 124.159 102.961 123.906C102.984 123.652 102.984 123.444 102.957 123.283C102.924 123.117 102.873 123.029 102.795 123.02Z" fill="#B2B2B2"/>
<path d="M115.684 125.787C115.86 125.524 116.021 125.344 116.173 125.238C116.33 125.137 116.455 125.109 116.556 125.15C116.653 125.196 116.713 125.293 116.732 125.45C116.75 125.607 116.699 125.801 116.579 126.041C116.372 126.474 116.058 127.019 115.638 127.674C115.218 128.329 114.748 128.97 114.226 129.588C113.71 130.211 113.17 130.746 112.612 131.194C112.058 131.646 111.528 131.881 111.029 131.904C110.434 131.923 110.01 131.687 109.742 131.198C109.479 130.714 109.368 130.054 109.419 129.219C109.465 128.389 109.645 127.415 109.964 126.308C110.287 125.201 110.72 124.038 111.278 122.816C111.509 122.285 111.8 121.935 112.141 121.764C112.483 121.593 112.815 121.515 113.142 121.529C113.47 121.547 113.747 121.621 113.977 121.759C114.208 121.902 114.333 122.022 114.346 122.133C114.305 122.567 114.19 123.042 114.005 123.554C113.816 124.071 113.599 124.601 113.35 125.141C113.101 125.681 112.842 126.216 112.584 126.742C112.321 127.263 112.104 127.748 111.924 128.186C111.745 128.629 111.62 129.007 111.551 129.335C111.477 129.657 111.505 129.888 111.634 130.022C111.781 130.151 111.993 130.124 112.28 129.944C112.561 129.759 112.889 129.473 113.262 129.081C113.631 128.693 114.028 128.213 114.448 127.641C114.872 127.069 115.283 126.451 115.684 125.787ZM113.673 120.989C113.193 120.994 112.879 120.874 112.736 120.629C112.598 120.389 112.575 120.122 112.667 119.831C112.764 119.54 112.958 119.282 113.253 119.047C113.553 118.816 113.89 118.714 114.263 118.742C114.655 118.77 114.928 118.904 115.08 119.144C115.228 119.388 115.269 119.642 115.2 119.909C115.131 120.181 114.964 120.426 114.706 120.652C114.448 120.883 114.102 120.994 113.673 120.989Z" fill="#B2B2B2"/>
<path d="M125.627 124.566C125.779 124.29 125.936 124.101 126.088 124.008C126.245 123.916 126.374 123.884 126.485 123.921C126.591 123.953 126.651 124.045 126.67 124.202C126.688 124.359 126.642 124.553 126.522 124.793C126.25 125.309 125.918 125.895 125.525 126.559C125.133 127.219 124.709 127.842 124.247 128.428C123.791 129.014 123.311 129.521 122.803 129.946C122.301 130.37 121.798 130.61 121.304 130.675C121.087 130.698 120.898 130.679 120.741 130.614C120.584 130.55 120.46 130.472 120.363 130.37C120.266 130.269 120.188 130.167 120.128 130.066C120.072 129.96 120.026 129.881 120.003 129.83C119.422 130.532 118.808 130.965 118.171 131.127C117.53 131.288 116.963 131.219 116.469 130.919C115.98 130.614 115.606 130.098 115.348 129.369C115.09 128.64 115.053 127.722 115.233 126.624C115.491 125.088 115.902 123.865 116.469 122.961C117.037 122.052 117.673 121.392 118.37 120.973C119.071 120.548 119.782 120.322 120.506 120.29C121.226 120.257 121.858 120.336 122.402 120.53C122.753 120.654 123.025 120.83 123.219 121.06C123.412 121.286 123.551 121.526 123.629 121.789C123.708 122.048 123.731 122.32 123.703 122.601C123.671 122.883 123.588 123.146 123.449 123.385C123.592 123.496 123.675 123.625 123.694 123.773C123.329 124.317 123.002 124.899 122.707 125.512C122.411 126.126 122.158 126.693 121.955 127.219C121.752 127.745 121.609 128.193 121.535 128.553C121.456 128.917 121.466 129.111 121.562 129.134C121.913 129.258 122.448 128.931 123.168 128.142C123.892 127.358 124.709 126.167 125.627 124.566ZM119.999 127.514C120.058 127.265 120.151 126.952 120.271 126.578C120.395 126.2 120.529 125.807 120.686 125.397C120.838 124.986 121 124.594 121.166 124.211C121.332 123.828 121.493 123.505 121.646 123.242C121.779 122.966 121.765 122.721 121.599 122.513C121.433 122.301 121.179 122.255 120.829 122.384C120.483 122.509 120.086 122.869 119.638 123.464C119.191 124.054 118.753 125.028 118.324 126.384C117.955 127.579 117.793 128.446 117.849 128.977C117.904 129.512 118.061 129.789 118.315 129.812C118.568 129.84 118.864 129.641 119.205 129.217C119.542 128.792 119.805 128.225 119.999 127.514Z" fill="#B2B2B2"/>
<path d="M10.0432 133.262V131.416H11.9672V130.613H10.0432V128.862H12.1311V128.042H9.17188V134.082H12.2174V133.262H10.0432Z" fill="#B2B2B2"/>
<path d="M14.5382 134.194C15.6684 134.194 16.2982 133.426 16.2982 132.529C16.2982 130.656 13.7618 130.656 13.7618 129.475C13.7618 129.043 14.0464 128.767 14.5382 128.767C15.004 128.767 15.3062 129.043 15.3235 129.621H16.2122C16.1862 128.595 15.5651 127.93 14.5295 127.93C13.5116 127.93 12.8731 128.586 12.8731 129.457C12.8731 131.252 15.4011 131.321 15.4011 132.52C15.4011 133.003 15.1163 133.348 14.5382 133.348C14.0034 133.348 13.6668 133.046 13.6582 132.425H12.7695C12.7782 133.53 13.4685 134.194 14.5382 134.194Z" fill="#B2B2B2"/>
<path d="M20.1025 128.042H16.7031V128.871H17.9543V134.082H18.8429V128.871H20.1025V128.042Z" fill="#B2B2B2"/>
<path d="M20.8018 134.082H22.3118C23.4764 134.082 24.1667 133.383 24.1667 132.184V129.923C24.1667 128.733 23.4764 128.042 22.3031 128.042H20.8018V134.082ZM21.6734 133.253V128.871H22.3118C22.9416 128.871 23.2867 129.233 23.2867 129.94V132.166C23.2867 132.883 22.9329 133.253 22.3118 133.253H21.6734Z" fill="#B2B2B2"/>
<path d="M136.859 128.042L135.737 128.862V129.811L136.643 129.173V134.056H137.48V128.042H136.859Z" fill="#B2B2B2"/>
<path d="M139.947 127.948C139.058 127.948 138.402 128.569 138.402 129.535V130.493C138.402 131.39 139.032 132.003 139.826 132.003C140.154 132.003 140.447 131.891 140.645 131.701V132.624C140.645 133.107 140.361 133.366 139.955 133.366C139.576 133.366 139.317 133.098 139.282 132.632H138.437C138.489 133.573 139.093 134.177 139.955 134.177C140.853 134.177 141.491 133.564 141.491 132.607V129.535C141.491 128.569 140.835 127.948 139.947 127.948ZM139.964 131.226C139.55 131.226 139.248 130.942 139.248 130.45V129.544C139.248 129.035 139.541 128.759 139.947 128.759C140.352 128.759 140.645 129.035 140.645 129.544V130.441C140.645 130.942 140.361 131.226 139.964 131.226Z" fill="#B2B2B2"/>
<path d="M141.889 128.034V128.819H143.951L142.398 134.09H143.269L144.9 128.612V128.034H141.889Z" fill="#B2B2B2"/>
<path d="M147.168 129.983C146.866 129.983 146.607 130.078 146.409 130.225V128.793H148.342V128.042H145.572V131.355H146.392C146.478 130.967 146.702 130.777 147.056 130.777C147.487 130.777 147.686 131.036 147.686 131.692V132.322C147.686 133.107 147.453 133.366 147.039 133.366C146.616 133.366 146.392 133.124 146.366 132.546H145.521C145.555 133.573 146.124 134.177 147.039 134.177C147.962 134.177 148.531 133.555 148.531 132.313V131.7C148.531 130.596 147.979 129.983 147.168 129.983Z" fill="#B2B2B2"/>
</svg>
