<svg width="90" height="84" viewBox="0 0 90 84" fill="none" xmlns="http://www.w3.org/2000/svg">
<path d="M21.3864 17.1167C29.8824 18.8203 41.3652 17.6177 55.2652 13.9313C53.9072 13.3606 52.8558 12.9327 52.3152 12.826C50.4384 12.4497 45.7809 10.776 45.7809 10.776C45.7809 10.776 45.4658 12.208 45.0834 12.0354C44.7023 11.8598 28.701 4.58056 28.701 4.58056C28.701 4.58056 28.6262 -0.229868 31.2524 0.920066C32.9859 1.68034 48.4582 8.45764 58.755 12.9674C59.6883 12.6981 60.632 12.4243 61.5863 12.1355C62.6255 11.7766 62.9926 12.9404 62.3086 14.523C65.7059 16.0125 67.9637 17.0014 67.9637 17.0014C67.9637 17.0014 68.7532 17.8107 67.9569 18.1511C65.8229 17.8793 63.3748 17.1243 61.0407 16.2643C54.2619 21.5119 25.0814 23.3854 23.0732 22.9252C21.0085 22.4549 20.015 16.0137 21.3864 17.1167ZM58.742 15.7233C59.1076 15.7258 59.4053 15.4297 59.4081 15.0669C59.4106 14.7013 59.1157 14.4032 58.7504 14.4001C58.3849 14.3976 58.0872 14.6923 58.0847 15.0579C58.0826 15.4214 58.3776 15.7212 58.742 15.7233Z" fill="#DE9E48"/>
<path d="M13.3913 35.8294C13.1688 35.6279 12.9209 35.4398 12.6473 35.2646C12.4227 35.1137 12.1536 34.9768 11.8396 34.8537C11.5242 34.7301 11.1885 34.6727 10.8324 34.6817L5.73938 34.8104L5.73806 47.2795L9.59625 46.8885L9.63506 46.8845C9.86773 46.8611 10.1125 46.7764 10.3694 46.6309C10.6255 46.4859 10.8552 46.324 11.0588 46.1452C11.3127 45.9355 11.5531 45.7015 11.7803 45.4429L11.7787 51.8801C11.577 51.6963 11.362 51.527 11.1338 51.372C10.9305 51.2398 10.701 51.1237 10.4452 51.0239C10.1888 50.9238 9.91848 50.8916 9.63432 50.9274L9.59552 50.9325L5.73747 51.4208L5.73629 61.3404C5.73629 61.6681 5.79737 61.9775 5.91924 62.268C6.04111 62.5581 6.18289 62.8098 6.34475 63.023C6.53315 63.2846 6.74783 63.5133 6.98876 63.7086L0.178711 65.0917C0.410498 64.7343 0.627383 64.3808 0.829219 64.0312C1.00169 63.716 1.15956 63.3901 1.30297 63.0537C1.44609 62.7177 1.51735 62.396 1.5175 62.0877L1.51824 32.9811C1.51824 32.7287 1.44683 32.4699 1.30356 32.2045C1.1603 31.9388 1.00228 31.6936 0.829662 31.4693C0.627531 31.1881 0.410645 30.9204 0.178711 30.6662H12.6486L13.3913 35.8294Z" fill="#F7F7F7"/>
<path d="M21.9372 30.6711C21.7008 30.8492 21.4904 31.0656 21.306 31.3206C21.148 31.5246 21.0095 31.7672 20.8907 32.0482C20.7718 32.3293 20.7123 32.6357 20.7123 32.9674L20.7122 59.1483C20.7122 59.5055 20.7718 59.832 20.8907 60.1275C21.0093 60.4227 21.1479 60.6778 21.306 60.8926C21.4904 61.1559 21.7007 61.3779 21.9372 61.5592L15.2695 62.187C15.4879 61.9331 15.6924 61.6548 15.8832 61.3524C16.0463 61.1045 16.1958 60.8321 16.3317 60.5354C16.4673 60.239 16.5351 59.9229 16.5351 59.5869L16.5354 33.0741C16.5354 32.7899 16.4676 32.506 16.332 32.2223C16.1962 31.9385 16.0466 31.6803 15.8834 31.4477C15.6928 31.1633 15.4882 30.9043 15.2698 30.6711H21.9372Z" fill="#F7F7F7"/>
<path d="M31.2917 44.948L38.0695 44.8185L38.0678 48.4483L38.0644 55.0928C38.0639 55.8917 37.8988 56.6421 37.5688 57.3443C37.2384 58.047 36.7889 58.6701 36.2197 59.2135C35.6496 59.7578 34.9858 60.1971 34.2274 60.5315C33.4677 60.8667 32.6462 61.0524 31.7629 61.0884L30.5547 61.1376C29.6663 61.1739 28.8367 61.0544 28.0664 60.7787C27.2945 60.5026 26.6161 60.1114 26.032 59.6052C25.4468 59.0983 24.9837 58.4995 24.6432 57.8095C24.3022 57.1188 24.1319 56.3664 24.1328 55.5523L24.1507 36.5084C24.1514 35.6954 24.3228 34.9368 24.6648 34.2333C25.0064 33.5304 25.4703 32.914 26.0559 32.3839C26.6404 31.8548 27.3188 31.4368 28.0906 31.1296C28.8608 30.8232 29.6898 30.6703 30.5773 30.6703H31.8244C32.7067 30.6703 33.527 30.8223 34.2857 31.1258C35.0429 31.4289 35.699 31.8405 36.2546 32.3607C36.8095 32.8802 37.2516 33.484 37.5809 34.1722C37.9099 34.8599 38.0743 35.6026 38.0738 36.4007L38.0732 37.5253C38.0731 37.8637 38.1386 38.2017 38.27 38.5389C38.4015 38.876 38.5461 39.1765 38.7037 39.4405C38.8875 39.7524 39.0976 40.0517 39.3337 40.3386L32.7002 40.4253C32.9407 40.2273 33.1545 40.0054 33.3413 39.7596C33.5014 39.5629 33.6482 39.3301 33.7816 39.061C33.9149 38.7919 33.9818 38.4993 33.9819 38.1831L33.9831 36.4323C33.9834 35.8731 33.7706 35.4063 33.3444 35.0318C32.9177 34.6569 32.4103 34.4709 31.8218 34.4738L30.5745 34.4802C29.9561 34.4833 29.4375 34.6755 29.0192 35.0572C28.6005 35.4392 28.3908 35.9122 28.3904 36.4755L28.3751 55.4124C28.3746 55.9766 28.5838 56.4416 29.0021 56.8071C29.4201 57.1721 29.9387 57.3434 30.5576 57.3214L31.7656 57.2785C32.3814 57.2565 32.8962 57.0492 33.3103 56.6569C33.724 56.2649 33.9309 55.7891 33.9312 55.2291L33.9354 48.584C33.5623 48.5685 33.2154 48.6134 32.895 48.7187C32.5744 48.8239 32.2935 48.9344 32.0525 49.0501C31.8114 49.1659 31.6238 49.2804 31.4897 49.3936C31.3554 49.5069 31.2883 49.5758 31.2883 49.6002L31.2917 44.948Z" fill="#F7F7F7"/>
<path d="M50.1467 60.8932C50.4148 60.6244 50.6429 60.3553 50.8306 60.0856C50.9916 59.8402 51.1323 59.5577 51.2531 59.2377C51.374 58.9177 51.4076 58.5844 51.3539 58.2378C51.3004 57.8912 51.2468 57.5384 51.1931 57.1796C51.1397 56.8207 51.086 56.5049 51.0324 56.2326C50.9789 55.9108 50.9252 55.589 50.8717 55.2672L45.5321 55.2175L45.0912 58.2463C45.0378 58.5417 45.0712 58.844 45.1913 59.1536C45.3114 59.4631 45.4515 59.7421 45.6118 59.9906C45.7987 60.2885 46.0125 60.5745 46.2528 60.8485L39.7354 60.774C39.9481 60.5796 40.1343 60.3724 40.2938 60.1529C40.4269 59.9574 40.5533 59.7557 40.673 59.5478C40.7928 59.3399 40.8792 59.1378 40.9325 58.9414C40.9592 58.8433 41.0191 58.4131 41.1122 57.6507C41.2055 56.8885 41.3385 55.9049 41.5117 54.6998C41.6848 53.4946 41.8713 52.1352 42.0712 50.6219C42.2711 49.1081 42.4777 47.5633 42.691 45.9875C42.9044 44.4113 43.1111 42.8717 43.3112 41.3687C43.5112 39.8655 43.6982 38.516 43.8717 37.3205C44.0452 36.1245 44.1787 35.1504 44.2722 34.3983C44.3656 33.646 44.4258 33.2327 44.4525 33.1588C44.5059 32.8874 44.466 32.6098 44.3324 32.3261C44.1991 32.0422 44.0523 31.7769 43.892 31.5302C43.7052 31.2589 43.4919 30.9752 43.2517 30.6792H53.2125C52.9437 30.9761 52.7153 31.2608 52.527 31.533C52.3659 31.7804 52.2248 32.0463 52.1039 32.3308C51.983 32.6154 51.9494 32.8689 52.0031 33.0916C52.0031 33.1412 52.0566 33.5371 52.1639 34.2795C52.2712 35.0221 52.4053 35.9809 52.5661 37.1567C52.7271 38.3326 52.9081 39.6755 53.1094 41.1857C53.3106 42.6963 53.5118 44.2378 53.7131 45.8103C53.9142 47.3831 54.1156 48.925 54.3168 50.4363C54.5182 51.9475 54.7062 53.3105 54.8807 54.5248C55.0553 55.7393 55.1962 56.7432 55.3036 57.5364C55.4111 58.3296 55.4783 58.7759 55.5051 58.8752C55.5588 59.0985 55.653 59.3348 55.7875 59.5838C55.9221 59.8329 56.0566 60.0571 56.1912 60.2567C56.3527 60.5061 56.5412 60.7435 56.7566 60.9688L50.1467 60.8932ZM50.3093 51.5183L48.2221 34.83L46.1336 51.4854L50.3093 51.5183Z" fill="#F7F7F7"/>
<path d="M71.9761 59.6325C71.9759 59.9378 72.0377 60.2411 72.1615 60.5424C72.2852 60.8437 72.4298 61.1148 72.5954 61.3559C72.7885 61.65 73.0095 61.9082 73.2584 62.1304L66.5508 61.6419C66.7657 61.4062 66.9674 61.1567 67.156 60.8935C67.3177 60.6533 67.466 60.3869 67.601 60.094C67.7361 59.801 67.8037 59.5032 67.8038 59.2008L67.8063 53.6038C67.8065 53.0238 67.5974 52.5337 67.1796 52.1346C66.7626 51.7361 66.2589 51.5226 65.6697 51.4937L63.1566 51.3705L63.1559 58.8526C63.1559 59.1766 63.2152 59.486 63.3342 59.7809C63.4531 60.0759 63.592 60.3538 63.7509 60.6145C63.9365 60.9022 64.1487 61.1921 64.3875 61.4844L57.9891 61.0185C58.1954 60.738 58.389 60.4564 58.5697 60.1734C58.7248 59.9131 58.867 59.6394 58.9965 59.3522C59.1259 59.0649 59.1907 58.7853 59.1907 58.5137L59.1864 33.2817C59.1863 32.9594 59.1213 32.6433 58.9915 32.333C58.8617 32.0229 58.7192 31.7439 58.5636 31.496C58.3823 31.2235 58.1883 30.9513 57.9814 30.6792H65.8364C66.723 30.6792 67.5524 30.8372 68.3239 31.1541C69.0982 31.4722 69.7797 31.9056 70.3672 32.4543C70.9565 33.0046 71.4232 33.6448 71.7669 34.3745C72.1111 35.1056 72.2832 35.8929 72.2824 36.7361L72.2765 44.8166C72.2758 45.7605 72.0545 46.6327 71.6132 47.4313C71.1729 48.2283 70.5693 48.8896 69.8038 49.4148C70.4591 49.9768 70.9861 50.6487 71.3836 51.4305C71.7818 52.2135 71.9809 53.0514 71.9803 53.9429L71.9761 59.6325ZM65.8317 46.7916C66.4485 46.815 66.9662 46.6394 67.3841 46.2641C67.803 45.8882 68.0126 45.4156 68.0129 44.8598L68.0166 36.6823C68.0167 36.1006 67.8072 35.605 67.3885 35.2086C66.9705 34.813 66.4527 34.6125 65.8352 34.6069L63.1585 34.5821L63.1572 46.6902L65.8317 46.7916Z" fill="#F7F7F7"/>
<path d="M82.2773 30.6792C83.1642 30.6792 84.0053 30.8533 84.7925 31.204C85.5799 31.558 86.2826 32.0435 86.8915 32.6616C87.505 33.2839 87.9855 33.9975 88.3458 34.8015C88.7076 35.6088 88.8885 36.4686 88.8878 37.3784L88.8678 58.3899C88.8669 59.3001 88.6844 60.124 88.3212 60.8594C87.9594 61.592 87.4702 62.2018 86.8416 62.6861C86.2176 63.167 85.507 63.505 84.7193 63.7027C83.9318 63.8972 83.0907 63.9043 82.2043 63.7282L81.0012 63.5288C80.1368 63.357 79.3334 63.0277 78.596 62.5447C77.8716 62.0671 77.2296 61.4859 76.6747 60.8032C76.1237 60.125 75.7005 59.391 75.3911 58.5978C75.0831 57.8077 74.9298 56.9953 74.9307 56.1585L74.9506 36.839C74.9515 36.0025 75.1064 35.221 75.4161 34.4925C75.7269 33.7613 76.1514 33.1117 76.7037 32.5435C77.2597 31.9714 77.9026 31.5183 78.6277 31.1848C79.3657 30.8484 80.1694 30.6792 81.034 30.6792H82.2773ZM84.5024 37.2825C84.503 36.6981 84.2824 36.1401 83.8358 35.6171C83.3983 35.097 82.8747 34.8304 82.2798 34.8157L81.0232 34.7844C80.4152 34.7693 79.9029 35.005 79.4978 35.4896C79.0881 35.9718 78.8868 36.4978 78.8864 37.0629L78.8665 56.6783C78.866 57.2435 79.0661 57.8095 79.4748 58.3731C79.879 58.9383 80.3909 59.2756 80.9987 59.3812L82.2151 59.5527C82.8367 59.6605 83.3675 59.5056 83.7923 59.0833C84.226 58.6601 84.4407 58.1515 84.4413 57.5671L84.5024 37.2825Z" fill="#F7F7F7"/>
<path d="M27.4322 68.4746C28.4105 68.5965 29.1735 68.8405 29.7262 69.2116C30.279 69.5826 30.6474 70.0186 30.8344 70.5195C31.0211 71.0178 31.0419 71.5445 30.8966 72.0947C30.7486 72.6473 30.4631 73.1612 30.0428 73.6413C29.6198 74.1214 29.0774 74.534 28.4157 74.8765C27.7515 75.2191 26.9962 75.4267 26.1477 75.4993C26.6771 75.6446 27.1156 75.8809 27.466 76.2078C27.8137 76.5374 28.0784 76.9085 28.2601 77.3263C28.4417 77.7415 28.5455 78.1826 28.5714 78.6446C28.5973 79.1064 28.5481 79.5529 28.4235 79.9862C28.273 80.4766 28.0525 80.8944 27.7618 81.2447C27.4712 81.5925 27.1312 81.8831 26.747 82.1142C26.363 82.3424 25.9453 82.5164 25.4937 82.6357C25.0448 82.7524 24.5802 82.8225 24.1028 82.8458C23.6227 82.8693 23.1426 82.846 22.66 82.781C22.1746 82.7135 21.7153 82.6124 21.282 82.4801C20.5864 82.262 20.0493 81.948 19.6679 81.5405C19.289 81.1307 19.0373 80.6869 18.9101 80.2068C18.7829 79.7267 18.7648 79.2387 18.8556 78.7483C18.9464 78.2552 19.1203 77.8141 19.3747 77.4222C19.6289 77.0305 19.9534 76.7215 20.3426 76.4958C20.7344 76.2701 21.1574 76.1818 21.6116 76.2285C21.7491 76.2441 21.8451 76.335 21.8971 76.501C21.9462 76.6671 21.967 76.8644 21.9542 77.0979C21.9412 77.3288 21.8996 77.5754 21.8321 77.84C21.7672 78.1047 21.6842 78.3435 21.5829 78.5537C21.3728 78.4525 21.1781 78.4265 21.0016 78.4681C20.8227 78.5096 20.6695 78.6056 20.5423 78.751C20.4126 78.8988 20.3218 79.0804 20.2647 79.2958C20.2076 79.5112 20.1946 79.7345 20.2284 79.9654C20.2622 80.1963 20.3529 80.4222 20.4982 80.6374C20.6462 80.8555 20.859 81.0371 21.1366 81.1799C21.1288 81.1072 21.1782 80.8893 21.2846 80.5259C21.391 80.1626 21.5312 79.7242 21.705 79.2129C21.8763 78.699 22.0657 78.1515 22.2706 77.5675C22.4757 76.9837 22.6703 76.4309 22.8571 75.912C23.0465 75.3929 23.2075 74.944 23.345 74.5677C23.4799 74.1889 23.5656 73.958 23.5941 73.8697C23.0206 73.7088 22.5588 73.4492 22.2057 73.0911C21.8529 72.7331 21.6324 72.3282 21.5415 71.8792C21.4481 71.4303 21.4895 70.9761 21.6634 70.5169C21.8373 70.0549 22.1617 69.6502 22.6418 69.2971C23.1218 68.9469 23.755 68.6873 24.5466 68.5239C25.3354 68.3577 26.2982 68.3423 27.4322 68.4746ZM22.3615 81.5613C23.1634 81.7145 23.8666 81.7015 24.4712 81.5224C25.0785 81.3434 25.5689 81.0709 25.9478 80.7077C26.3267 80.3418 26.5862 79.9188 26.7264 79.4438C26.8665 78.9664 26.8795 78.5044 26.7678 78.0581C26.6536 77.6117 26.4019 77.2198 26.0101 76.8799C25.6183 76.5426 25.0836 76.3272 24.4038 76.2311C24.2663 76.5737 24.1209 76.9526 23.9626 77.3756C23.807 77.7959 23.6382 78.2397 23.4592 78.7069C23.2828 79.174 23.1011 79.6514 22.9142 80.1393C22.7299 80.6271 22.5431 81.0994 22.3615 81.5613ZM25.0577 74.5522C25.7921 74.5548 26.4254 74.4354 26.9599 74.194C27.4945 73.9501 27.9226 73.6413 28.2496 73.2676C28.574 72.8914 28.7894 72.4839 28.8985 72.0427C29.0048 71.6016 28.9997 71.1812 28.8828 70.7815C28.7661 70.3845 28.5326 70.0368 28.1847 69.7383C27.8344 69.4426 27.3621 69.253 26.7653 69.1674C26.223 69.1 25.748 69.1285 25.3405 69.2583C24.9332 69.3855 24.5854 69.5723 24.2974 69.8162C24.0094 70.0601 23.781 70.3507 23.6124 70.6855C23.4436 71.0178 23.3424 71.3525 23.3034 71.6873C23.2671 72.0194 23.2879 72.3385 23.3658 72.6422C23.4462 72.9458 23.5916 73.195 23.8017 73.3895C24.1339 72.502 24.4141 71.7988 24.6503 71.2773C24.8839 70.7582 25.1018 70.356 25.3069 70.0679C25.4314 69.8758 25.5975 69.7358 25.8051 69.6475C26.0127 69.5593 26.2333 69.5099 26.4617 69.5049C26.6899 69.4971 26.9028 69.5282 27.1001 69.5983C27.2972 69.6683 27.4452 69.7642 27.5437 69.8889C27.4062 69.8836 27.2739 69.9407 27.1415 70.0549C27.0092 70.1718 26.8535 70.3975 26.6744 70.7323C26.4955 71.067 26.2801 71.5418 26.0257 72.1518C25.7713 72.7642 25.4495 73.5634 25.0577 74.5522Z" fill="#CCCCCC"/>
<path d="M35.8713 75.105C35.9569 74.9494 36.0451 74.843 36.1307 74.7911C36.2191 74.7391 36.2917 74.721 36.3539 74.7418C36.4137 74.7599 36.4473 74.8119 36.4578 74.9001C36.4681 74.9883 36.4422 75.0974 36.3747 75.2324C36.2216 75.5229 36.0348 75.8525 35.8142 76.2262C35.5936 76.5973 35.3549 76.9477 35.0954 77.2771C34.8384 77.6067 34.5685 77.8922 34.2832 78.1309C34.0002 78.3697 33.7174 78.5047 33.4397 78.541C33.3177 78.5539 33.2115 78.5436 33.1232 78.5072C33.0348 78.4709 32.9648 78.4268 32.9103 78.3697C32.8559 78.3126 32.8118 78.2555 32.778 78.1984C32.7468 78.1388 32.7209 78.0947 32.7079 78.066C32.3809 78.4606 32.0358 78.7044 31.6778 78.7952C31.317 78.8861 30.9977 78.8471 30.7201 78.6785C30.4451 78.5072 30.2348 78.2165 30.0895 77.8065C29.9443 77.3965 29.9235 76.8801 30.0247 76.2625C30.17 75.3983 30.4009 74.7106 30.7201 74.2021C31.0394 73.6908 31.3974 73.3198 31.7893 73.0836C32.1837 72.8448 32.5834 72.7177 32.9909 72.6995C33.3956 72.6814 33.7512 72.7255 34.0573 72.8344C34.2546 72.9045 34.4077 73.0032 34.5166 73.1328C34.6256 73.26 34.7035 73.395 34.7476 73.5429C34.7918 73.6882 34.8047 73.8413 34.7891 73.9996C34.771 74.158 34.7243 74.3058 34.6464 74.4408C34.7268 74.5031 34.7736 74.5758 34.7839 74.6587C34.579 74.965 34.3947 75.292 34.2286 75.6371C34.0625 75.9822 33.9198 76.3014 33.8056 76.5973C33.6914 76.8931 33.611 77.1448 33.5695 77.3472C33.5254 77.5523 33.5306 77.6612 33.585 77.6742C33.7823 77.7442 34.0833 77.56 34.4881 77.1163C34.8956 76.675 35.3549 76.0056 35.8713 75.105ZM32.7054 76.7634C32.739 76.6232 32.791 76.4468 32.8584 76.2365C32.9285 76.0238 33.0037 75.8032 33.0921 75.5723C33.1777 75.3412 33.2684 75.1207 33.3618 74.9053C33.4553 74.6898 33.5461 74.5082 33.6318 74.3604C33.707 74.2046 33.6992 74.0671 33.6058 73.9504C33.5124 73.8309 33.3696 73.805 33.1725 73.8776C32.9779 73.9477 32.7547 74.1501 32.503 74.4849C32.2511 74.817 32.0047 75.3645 31.7633 76.1275C31.5557 76.7997 31.4649 77.2876 31.496 77.5859C31.5271 77.8871 31.6155 78.0427 31.7582 78.0557C31.9008 78.0712 32.067 77.9597 32.2589 77.7209C32.4484 77.4822 32.5964 77.1629 32.7054 76.7634Z" fill="#CCCCCC"/>
<path d="M40.7704 74.505C40.8561 74.3493 40.9443 74.2456 41.0299 74.1937C41.1181 74.1391 41.1934 74.1236 41.2531 74.1417C41.3127 74.1599 41.3465 74.2145 41.3568 74.3C41.3698 74.3883 41.3413 74.4998 41.2739 74.6322C41.1311 74.9228 40.9468 75.2654 40.7184 75.6651C40.4902 76.0646 40.241 76.4462 39.9736 76.8068C39.7038 77.1702 39.4236 77.4816 39.1303 77.741C38.8396 78.0032 38.5541 78.1485 38.2766 78.1848C38.1519 78.1978 38.0093 78.1666 37.8483 78.0862C37.6875 78.0083 37.5422 77.8604 37.4176 77.6451C37.2931 77.4322 37.2022 77.1364 37.1451 76.7628C37.088 76.3891 37.114 75.9116 37.2204 75.3355C36.9037 75.4056 36.6106 75.3926 36.3381 75.3017L36.146 75.6546C36.1045 75.7325 36.0526 75.7688 35.9955 75.7585C35.9359 75.7507 35.8839 75.7169 35.8425 75.6598C35.7982 75.6027 35.7697 75.5326 35.7541 75.4522C35.7386 75.3693 35.7516 75.2887 35.7931 75.211L35.8683 75.0603C35.6529 74.8372 35.5259 74.5284 35.4817 74.1366C35.4401 73.7447 35.4609 73.3632 35.544 72.9921C35.6296 72.621 35.7776 72.3019 35.9852 72.0372C36.1927 71.7699 36.4496 71.6453 36.7533 71.6608C36.8804 71.666 36.9946 71.7258 37.0958 71.8374C37.1996 71.9515 37.2723 72.1098 37.3113 72.3122C37.3527 72.5173 37.3579 72.7612 37.3242 73.0492C37.2905 73.3347 37.2022 73.659 37.0594 74.0224C37.2905 73.9418 37.5188 73.7888 37.7472 73.5682C37.9781 73.3477 38.1909 73.031 38.3933 72.6185C38.4556 72.4654 38.5983 72.3668 38.8188 72.3226C39.0369 72.2811 39.3042 72.25 39.6156 72.2343C39.7194 72.2318 39.792 72.2526 39.8336 72.2941C39.8751 72.3355 39.8959 72.3901 39.8932 72.4576C39.8907 72.5276 39.8751 72.5951 39.8491 72.6678C39.8206 72.7404 39.7947 72.8027 39.7687 72.8572C39.6753 73.0259 39.5741 73.2413 39.4651 73.506C39.356 73.7707 39.2471 74.0535 39.1381 74.3545C39.0291 74.6556 38.9279 74.9591 38.8345 75.2706C38.7436 75.5794 38.6685 75.8649 38.6114 76.1269C38.5543 76.3916 38.5232 76.6122 38.5127 76.7913C38.5024 76.9704 38.5283 77.0819 38.5854 77.126C38.6762 77.1883 38.793 77.1702 38.9382 77.0664C39.0835 76.9651 39.2471 76.8017 39.4339 76.5759C39.6207 76.3475 39.8258 76.0595 40.049 75.7092C40.2721 75.3561 40.5135 74.9566 40.7704 74.505ZM36.5976 72.5691C36.5378 72.5769 36.4834 72.6392 36.4418 72.7534C36.3977 72.8702 36.3692 73.0026 36.3562 73.1556C36.3432 73.3087 36.3484 73.4644 36.3665 73.6175C36.3848 73.7732 36.4263 73.8874 36.4886 73.9626C36.5457 73.8303 36.5898 73.6849 36.6209 73.5241C36.6547 73.3632 36.678 73.2102 36.691 73.0673C36.704 72.9247 36.704 72.8078 36.6883 72.7171C36.6702 72.6237 36.6417 72.5743 36.5976 72.5691Z" fill="#CCCCCC"/>
<path d="M46.3804 73.7986C46.4557 73.6636 46.5361 73.5675 46.6191 73.5106C46.6997 73.4533 46.7723 73.4352 46.8319 73.4535C46.8916 73.4741 46.9306 73.5261 46.9514 73.6116C46.972 73.6974 46.9539 73.8062 46.8995 73.9387C46.6607 74.4706 46.3389 74.8885 45.9314 75.1946C45.5241 75.5009 45.1062 75.6799 44.6729 75.7344C44.3355 76.2145 43.9463 76.6194 43.5051 76.9515C43.064 77.2811 42.602 77.4731 42.1168 77.5224C41.6938 77.564 41.3668 77.4211 41.1384 77.0917C40.91 76.7647 40.7622 76.3234 40.6948 75.7682C40.6272 75.2127 40.6324 74.5693 40.7181 73.8452C40.8011 73.1187 40.9387 72.3791 41.1358 71.6291C41.3305 70.8792 41.5769 70.1499 41.878 69.444C42.179 68.7382 42.5165 68.1258 42.89 67.6042C43.2664 67.0825 43.6659 66.6856 44.0916 66.413C44.5198 66.1406 44.9584 66.0679 45.4125 66.1899C45.8147 66.2963 46.0689 66.509 46.1806 66.8231C46.2922 67.1396 46.2973 67.529 46.191 67.9908C46.0871 68.4527 45.8873 68.9718 45.5993 69.5453C45.3087 70.1187 44.9557 70.7079 44.5379 71.3125C44.6989 71.2632 44.8624 71.2424 45.031 71.2527C45.3476 71.2657 45.5785 71.3851 45.7265 71.6057C45.8743 71.8289 45.9444 72.1117 45.9393 72.4595C45.9366 72.8047 45.8692 73.1913 45.7368 73.6195C45.6071 74.0476 45.428 74.4758 45.1971 74.9014C45.428 74.8105 45.6459 74.6757 45.8537 74.4992C46.0613 74.3226 46.2377 74.0892 46.3804 73.7986ZM44.4523 73.033C44.3173 73.0486 44.2031 73.1134 44.1071 73.2251C44.0085 73.3366 43.9385 73.4663 43.8943 73.6195C43.8502 73.7699 43.8321 73.9336 43.8372 74.1125C43.8451 74.289 43.8814 74.4473 43.9514 74.5848C44.0526 74.3824 44.1409 74.1878 44.2161 73.9958C44.2914 73.8037 44.3511 73.6351 44.3977 73.4949C44.4419 73.3523 44.4705 73.2406 44.4808 73.155C44.4911 73.0693 44.4808 73.0303 44.4523 73.033ZM44.8908 67.804C44.7896 67.7547 44.6366 67.8662 44.4289 68.1361C44.2214 68.4086 44.0007 68.7772 43.7672 69.2443C43.5311 69.7114 43.2975 70.2537 43.064 70.8662C42.8304 71.4811 42.6383 72.1014 42.4852 72.7268L42.4878 72.7553C42.9238 72.1274 43.3079 71.5226 43.6453 70.9361C43.9801 70.3523 44.2551 69.8359 44.4653 69.3869C44.6781 68.9355 44.8207 68.5721 44.896 68.2892C44.9712 68.0089 44.9687 67.8481 44.8908 67.804ZM42.1531 76.544C42.366 76.5596 42.5839 76.4611 42.8148 76.243C43.0432 76.0276 43.2586 75.7551 43.4584 75.4283C43.1912 75.2102 43.0224 74.9144 42.9498 74.5434C42.8797 74.1696 42.877 73.7856 42.942 73.3912C42.8148 73.552 42.6824 73.7103 42.5371 73.8635C42.3944 74.0165 42.2543 74.1696 42.1168 74.3226C42.0493 74.6238 41.9922 74.9093 41.9455 75.1739C41.9014 75.4411 41.8754 75.6748 41.8676 75.8746C41.8597 76.0744 41.8806 76.2327 41.9273 76.3521C41.9741 76.4741 42.0493 76.5363 42.1531 76.544Z" fill="#CCCCCC"/>
<path d="M51.7015 73.1928C51.7767 73.0371 51.8573 72.9281 51.9428 72.8658C52.0284 72.8035 52.1012 72.7801 52.1608 72.7984C52.2205 72.819 52.262 72.871 52.2828 72.9565C52.3036 73.0423 52.2854 73.1538 52.2283 73.2862C52.1426 73.5041 52.0129 73.7637 51.8468 74.0621C51.6782 74.3579 51.4784 74.6615 51.2447 74.9652C51.0113 75.2715 50.7466 75.562 50.4584 75.8396C50.1678 76.1148 49.859 76.3457 49.532 76.5325C49.2051 76.7194 48.86 76.844 48.4966 76.9115C48.1333 76.9763 47.7596 76.9427 47.3782 76.8128C46.9656 76.6753 46.6593 76.421 46.4621 76.0472C46.2649 75.6737 46.1585 75.2533 46.1429 74.7862C46.1274 74.3164 46.1921 73.8363 46.3401 73.3407C46.4906 72.8477 46.7138 72.4065 47.0097 72.0198C47.3081 71.6331 47.6662 71.3424 48.0866 71.1452C48.5071 70.9454 48.9742 70.904 49.4906 71.0181C49.8227 71.0934 50.0719 71.2491 50.2379 71.4826C50.4013 71.7188 50.4974 71.9965 50.5285 72.3183C50.557 72.6401 50.5207 72.9825 50.4195 73.3511C50.3183 73.7196 50.1653 74.0725 49.9602 74.4098C49.7578 74.7498 49.5087 75.0561 49.2206 75.3311C48.9301 75.6087 48.6056 75.8163 48.2449 75.9538C48.5459 76.0109 48.8548 75.9746 49.1739 75.8475C49.4906 75.7204 49.8045 75.5257 50.1133 75.2688C50.4221 75.0119 50.7128 74.7031 50.9878 74.3397C51.2603 73.9765 51.499 73.595 51.7015 73.1928ZM49.2492 72.6322C49.1377 72.583 48.9948 72.6452 48.8157 72.819C48.6394 72.993 48.4655 73.2161 48.2968 73.4937C48.1255 73.7714 47.9802 74.0699 47.8582 74.3943C47.7363 74.716 47.6687 75.0041 47.6584 75.2585C47.988 75.1338 48.2709 74.934 48.5096 74.659C48.7483 74.3839 48.9352 74.1037 49.0727 73.813C49.2102 73.5249 49.2933 73.268 49.3219 73.0396C49.3504 72.8112 49.3269 72.6737 49.2492 72.6322Z" fill="#CCCCCC"/>
<path d="M57.2756 72.477C57.3613 72.3214 57.4496 72.2149 57.5351 72.1631C57.6234 72.1111 57.6961 72.093 57.7584 72.1136C57.818 72.1319 57.8518 72.1837 57.8622 72.2719C57.8726 72.3603 57.8466 72.4692 57.7792 72.6042C57.626 72.8949 57.4391 73.2243 57.2185 73.598C56.9979 73.9693 56.7592 74.3195 56.4997 74.6491C56.2428 74.9786 55.973 75.2641 55.6875 75.5028C55.4046 75.7417 55.1218 75.8765 54.8441 75.9128C54.7221 75.9258 54.6157 75.9155 54.5275 75.8792C54.4393 75.8429 54.3692 75.7986 54.3148 75.7417C54.2602 75.6844 54.2162 75.6273 54.1824 75.5704C54.1513 75.5106 54.1253 75.4665 54.1123 75.438C53.7854 75.8324 53.4401 76.0763 53.0821 76.1672C52.7215 76.2579 52.4022 76.2191 52.1245 76.0505C51.8495 75.8792 51.6392 75.5884 51.4939 75.1785C51.3486 74.7685 51.3278 74.2521 51.429 73.6343C51.5743 72.7703 51.8054 72.0827 52.1245 71.5739C52.4438 71.0627 52.8019 70.6916 53.1936 70.4554C53.5881 70.2167 53.9878 70.0897 54.3952 70.0715C54.8 70.0532 55.1554 70.0973 55.4617 70.2064C55.659 70.2765 55.812 70.375 55.921 70.5048C56.0301 70.6319 56.1078 70.7669 56.1521 70.9149C56.1962 71.0602 56.2092 71.2132 56.1935 71.3715C56.1754 71.5298 56.1286 71.6778 56.0509 71.8127C56.1313 71.8749 56.1779 71.9477 56.1884 72.0307C55.9833 72.3369 55.7992 72.6638 55.633 73.0091C55.4669 73.3542 55.3242 73.6733 55.21 73.9693C55.0958 74.2651 55.0154 74.5166 54.9738 74.7192C54.9297 74.9241 54.935 75.0332 54.9895 75.0462C55.1867 75.1162 55.4877 74.932 55.8926 74.4882C56.2999 74.047 56.7592 73.3775 57.2756 72.477ZM54.1097 74.1352C54.1435 73.9951 54.1954 73.8186 54.2628 73.6085C54.3329 73.3956 54.4081 73.175 54.4964 72.9441C54.582 72.7132 54.6728 72.4927 54.7662 72.2771C54.8596 72.0618 54.9505 71.8802 55.0361 71.7322C55.1115 71.5766 55.1037 71.4391 55.0103 71.3222C54.9167 71.2029 54.7741 71.1769 54.5768 71.2495C54.3822 71.3197 54.1591 71.522 53.9072 71.8568C53.6555 72.189 53.409 72.7366 53.1678 73.4995C52.9602 74.1715 52.8693 74.6595 52.9004 74.9579C52.9316 75.2589 53.0198 75.4146 53.1625 75.4276C53.3053 75.4432 53.4714 75.3315 53.6634 75.0928C53.8528 74.8541 54.0008 74.5349 54.1097 74.1352Z" fill="#CCCCCC"/>
<path d="M62.1747 71.8769C62.2604 71.7211 62.3485 71.6174 62.4342 71.5655C62.5224 71.511 62.5977 71.4954 62.6573 71.5137C62.7171 71.5319 62.7508 71.5863 62.7612 71.6719C62.7742 71.7601 62.7457 71.8718 62.6781 72.004C62.5354 72.2948 62.3512 72.6372 62.1228 73.0369C61.8945 73.4365 61.6453 73.818 61.378 74.1787C61.1081 74.542 60.8278 74.8534 60.5346 75.113C60.244 75.375 59.9585 75.5203 59.6808 75.5566C59.5563 75.5696 59.4136 75.5385 59.2526 75.4581C59.0918 75.3803 58.9465 75.2323 58.8218 75.0169C58.6973 74.8042 58.6066 74.5083 58.5495 74.1346C58.4924 73.7609 58.5183 73.2835 58.6247 72.7073C58.3081 72.7774 58.0148 72.7644 57.7424 72.6735L57.5503 73.0266C57.5089 73.1043 57.4569 73.1406 57.3998 73.1303C57.3401 73.1225 57.2883 73.0889 57.2467 73.0318C57.2026 72.9747 57.1741 72.9046 57.1584 72.8242C57.143 72.7411 57.1558 72.6607 57.1974 72.5828L57.2726 72.4323C57.0572 72.2091 56.9301 71.9003 56.8859 71.5084C56.8445 71.1165 56.8653 70.7351 56.9483 70.3641C57.0339 69.9928 57.1818 69.6737 57.3895 69.409C57.5971 69.1417 57.854 69.0172 58.1576 69.0328C58.2848 69.038 58.399 69.0977 58.5002 69.2093C58.6039 69.3235 58.6765 69.4816 58.7155 69.6842C58.7571 69.8891 58.7622 70.133 58.7286 70.4212C58.6946 70.7067 58.6066 71.031 58.4637 71.3942C58.6948 71.3138 58.923 71.1606 59.1514 70.9401C59.3825 70.7195 59.5952 70.403 59.7977 69.9903C59.8599 69.8372 60.0026 69.7386 60.2232 69.6945C60.4412 69.6529 60.7084 69.6218 61.0199 69.6063C61.1238 69.6036 61.1963 69.6244 61.2378 69.6659C61.2794 69.7075 61.3001 69.7619 61.2976 69.8294C61.2949 69.8995 61.2794 69.967 61.2535 70.0396C61.225 70.1124 61.199 70.1746 61.173 70.2291C61.0796 70.3977 60.9783 70.6131 60.8694 70.8778C60.7604 71.1425 60.6513 71.4253 60.5425 71.7265C60.4334 72.0274 60.3322 72.3311 60.2388 72.6425C60.1479 72.9513 60.0727 73.2367 60.0156 73.4989C59.9585 73.7636 59.9273 73.9841 59.917 74.1631C59.9067 74.3422 59.9325 74.4538 59.9896 74.4979C60.0805 74.5601 60.1974 74.542 60.3425 74.4383C60.4879 74.337 60.6513 74.1736 60.8383 73.9477C61.0251 73.7194 61.2301 73.4313 61.4532 73.081C61.6765 72.7281 61.9178 72.3284 62.1747 71.8769ZM58.0018 69.9411C57.9422 69.9487 57.8876 70.011 57.8461 70.1253C57.802 70.242 57.7735 70.3744 57.7606 70.5275C57.7476 70.6805 57.7527 70.8363 57.7709 70.9895C57.789 71.1451 57.8306 71.2593 57.8929 71.3346C57.95 71.2022 57.9941 71.0569 58.0253 70.8959C58.0589 70.7351 58.0824 70.582 58.0953 70.4393C58.1082 70.2965 58.1083 70.1798 58.0927 70.0889C58.0745 69.9955 58.0459 69.9462 58.0018 69.9411Z" fill="#CCCCCC"/>
<path d="M65.2505 71.4975C65.3492 71.3495 65.44 71.2483 65.5257 71.1885C65.6139 71.1316 65.684 71.1159 65.7411 71.1392C65.7955 71.1652 65.8292 71.2196 65.8396 71.3079C65.85 71.3963 65.8215 71.5051 65.7539 71.6401C65.6372 71.884 65.4608 72.1903 65.2247 72.5587C64.9885 72.9273 64.7238 73.288 64.4305 73.6356C64.1398 73.986 63.8362 74.287 63.5222 74.5387C63.2108 74.7931 62.9124 74.9254 62.6321 74.9384C62.2973 74.9487 62.0586 74.8164 61.9081 74.5414C61.7603 74.2689 61.6979 73.8978 61.7265 73.428C61.7525 72.9609 61.8537 72.4134 62.0326 71.7906C62.2144 71.1679 62.4583 70.5138 62.7723 69.8263C62.902 69.5276 63.0656 69.3305 63.2575 69.2345C63.4496 69.1384 63.6364 69.0943 63.8207 69.1021C64.005 69.1125 64.1606 69.1541 64.2905 69.232C64.4202 69.3124 64.4902 69.3798 64.4979 69.4421C64.4746 69.686 64.4098 69.9533 64.306 70.2413C64.1996 70.532 64.0776 70.8304 63.9374 71.1341C63.7974 71.4377 63.6521 71.7387 63.5067 72.0345C63.3587 72.3278 63.2369 72.6003 63.1357 72.8469C63.0344 73.0959 62.9644 73.3087 62.9254 73.493C62.8838 73.6746 62.8995 73.8044 62.972 73.8797C63.0551 73.9523 63.1745 73.9368 63.3354 73.8355C63.4937 73.7317 63.678 73.5709 63.8881 73.3503C64.0959 73.1322 64.3189 72.8624 64.555 72.5406C64.7939 72.2188 65.0248 71.871 65.2505 71.4975ZM64.119 68.7985C63.8493 68.8012 63.6727 68.7337 63.5923 68.5961C63.5145 68.4612 63.5016 68.3107 63.5533 68.1471C63.6079 67.9836 63.7168 67.8384 63.883 67.706C64.0517 67.5763 64.241 67.5192 64.4513 67.5348C64.6719 67.5503 64.825 67.6255 64.9106 67.7605C64.9936 67.8981 65.017 68.0407 64.9782 68.1912C64.9392 68.3444 64.8457 68.4819 64.7003 68.6091C64.5552 68.7389 64.3604 68.8012 64.119 68.7985Z" fill="#CCCCCC"/>
<path d="M70.8441 70.811C70.9297 70.6554 71.0179 70.549 71.1035 70.4971C71.1919 70.4451 71.2645 70.427 71.3267 70.4478C71.3863 70.4659 71.4201 70.5177 71.4306 70.606C71.4409 70.6943 71.415 70.8032 71.3475 70.9382C71.1944 71.2289 71.0076 71.5585 70.787 71.9321C70.5664 72.3031 70.3276 72.6535 70.0681 72.983C69.8112 73.3126 69.5413 73.5981 69.2558 73.8368C68.973 74.0755 68.6902 74.2105 68.4125 74.2468C68.2905 74.2598 68.1841 74.2495 68.0959 74.213C68.0076 74.1767 67.9376 74.1326 67.8831 74.0755C67.8285 74.0184 67.7846 73.9615 67.7508 73.9044C67.7196 73.8446 67.6937 73.8005 67.6807 73.772C67.3537 74.1664 67.0086 74.4103 66.6504 74.5012C66.2898 74.5921 65.9705 74.5531 65.6929 74.3845C65.4179 74.213 65.2076 73.9225 65.0623 73.5125C64.917 73.1025 64.8961 72.5861 64.9974 71.9684C65.1427 71.1042 65.3737 70.4165 65.6929 69.9079C66.0121 69.3967 66.3702 69.0257 66.7621 68.7894C67.1565 68.5507 67.5562 68.4235 67.9635 68.4054C68.3684 68.3872 68.724 68.4314 69.0301 68.5404C69.2274 68.6105 69.3804 68.709 69.4894 68.8389C69.5984 68.9659 69.6763 69.1009 69.7204 69.2489C69.7646 69.3942 69.7775 69.5472 69.7619 69.7055C69.7438 69.8638 69.697 70.0118 69.6192 70.1467C69.6996 70.2089 69.7463 70.2817 69.7567 70.3647C69.5517 70.6709 69.3675 70.9978 69.2014 71.3429C69.0353 71.6882 68.8926 72.0075 68.7784 72.3031C68.6642 72.5991 68.5838 72.8508 68.5422 73.0532C68.4981 73.2582 68.5034 73.3672 68.5578 73.3802C68.7551 73.4503 69.0561 73.266 69.4609 72.8222C69.8683 72.381 70.3276 71.7115 70.8441 70.811ZM67.6782 72.4693C67.7118 72.3292 67.7638 72.1526 67.8312 71.9425C67.9013 71.7296 67.9765 71.5091 68.0647 71.2782C68.1503 71.0471 68.2412 70.8265 68.3346 70.6113C68.428 70.3959 68.5189 70.2142 68.6046 70.0663C68.6798 69.9106 68.672 69.7729 68.5786 69.6562C68.4852 69.5369 68.3424 69.5109 68.1452 69.5835C67.9505 69.6536 67.7275 69.856 67.4756 70.1908C67.2239 70.523 66.9774 71.0706 66.7361 71.8335C66.5285 72.5056 66.4377 72.9935 66.4688 73.2919C66.4999 73.5929 66.5881 73.7486 66.731 73.7616C66.8736 73.7772 67.0398 73.6655 67.2317 73.4268C67.4212 73.1881 67.5691 72.8689 67.6782 72.4693Z" fill="#CCCCCC"/>
<path d="M5.829 75.7024V74.6638H6.91121V74.2125H5.829V73.2272H7.00342V72.7663H5.33887V76.1634H7.05197V75.7024H5.829Z" fill="#DE9E48"/>
<path d="M8.35717 76.2265C8.99293 76.2265 9.34717 75.7946 9.34717 75.2899C9.34717 74.2367 7.92045 74.2367 7.92045 73.5719C7.92045 73.3292 8.08053 73.174 8.35717 73.174C8.61921 73.174 8.78917 73.3292 8.79891 73.6544H9.29878C9.28417 73.0769 8.9348 72.7032 8.3523 72.7032C7.7797 72.7032 7.42058 73.072 7.42058 73.5622C7.42058 74.5716 8.84258 74.6105 8.84258 75.285C8.84258 75.5568 8.68235 75.7509 8.35717 75.7509C8.05634 75.7509 7.86704 75.581 7.86217 75.2316H7.3623C7.36717 75.8529 7.7555 76.2265 8.35717 76.2265Z" fill="#DE9E48"/>
<path d="M11.4873 72.7663H9.5752V73.2321H10.279V76.1634H10.7788V73.2321H11.4873V72.7663Z" fill="#DE9E48"/>
<path d="M11.8809 76.1634H12.7303C13.3853 76.1634 13.7737 75.7702 13.7737 75.0957V73.8242C13.7737 73.1545 13.3853 72.7663 12.7254 72.7663H11.8809V76.1634ZM12.3711 75.6975V73.2321H12.7303C13.0845 73.2321 13.2787 73.436 13.2787 73.8339V75.0859C13.2787 75.4889 13.0796 75.6975 12.7303 75.6975H12.3711Z" fill="#DE9E48"/>
<path d="M77.1621 72.7663L76.5312 73.2272V73.7612L77.0409 73.402V76.1488H77.5115V72.7663H77.1621Z" fill="#DE9E48"/>
<path d="M78.9 72.7129C78.4001 72.7129 78.0312 73.0623 78.0312 73.6058V74.1445C78.0312 74.6492 78.3855 74.9937 78.832 74.9937C79.0164 74.9937 79.1815 74.9307 79.293 74.8239V75.3433C79.293 75.615 79.1329 75.7606 78.9048 75.7606C78.6913 75.7606 78.5457 75.6102 78.5262 75.348H78.0507C78.0798 75.8771 78.4196 76.2167 78.9048 76.2167C79.4096 76.2167 79.7687 75.8722 79.7687 75.3335V73.6058C79.7687 73.0623 79.3998 72.7129 78.9 72.7129ZM78.9097 74.557C78.6767 74.557 78.5069 74.3969 78.5069 74.1203V73.6107C78.5069 73.3243 78.6719 73.1691 78.9 73.1691C79.1281 73.1691 79.293 73.3243 79.293 73.6107V74.1154C79.293 74.3969 79.1329 74.557 78.9097 74.557Z" fill="#DE9E48"/>
<path d="M79.9912 72.7615V73.2031H81.151L80.2774 76.1682H80.7677L81.6848 73.0865V72.7615H79.9912Z" fill="#DE9E48"/>
<path d="M82.962 73.8581C82.7922 73.8581 82.6466 73.9115 82.535 73.9941V73.1884H83.6221V72.7663H82.0642V74.6297H82.5253C82.5738 74.4114 82.7 74.3047 82.899 74.3047C83.1416 74.3047 83.2533 74.4502 83.2533 74.819V75.1733C83.2533 75.615 83.1222 75.7606 82.8893 75.7606C82.6514 75.7606 82.5253 75.6248 82.5107 75.2996H82.0352C82.0545 75.8771 82.3748 76.2167 82.8893 76.2167C83.4085 76.2167 83.7288 75.8673 83.7288 75.1686V74.8239C83.7288 74.2028 83.4182 73.8581 82.962 73.8581Z" fill="#DE9E48"/>
</svg>
